<mxfile host="Electron" modified="2024-05-08T20:50:19.825Z" agent="Mozilla/5.0 (Windows NT 10.0; Win64; x64) AppleWebKit/537.36 (KHTML, like Gecko) draw.io/24.2.5 Chrome/120.0.6099.109 Electron/28.1.0 Safari/537.36" etag="Osz1t_CGMT8Fc0t8-Sqs" version="24.2.5" type="device">
  <diagram name="Pagina-1" id="l_A-ikQZGk43M2Tz6nav">
    <mxGraphModel dx="1950" dy="444" grid="1" gridSize="10" guides="1" tooltips="1" connect="1" arrows="1" fold="1" page="0" pageScale="1" pageWidth="827" pageHeight="1169" math="0" shadow="0">
      <root>
        <mxCell id="0" />
        <mxCell id="1" parent="0" />
        <mxCell id="BXh9d_WbOHaoUhnF2Wcy-51" value="" style="edgeStyle=orthogonalEdgeStyle;rounded=0;orthogonalLoop=1;jettySize=auto;html=1;endArrow=none;endFill=0;" edge="1" parent="1">
          <mxGeometry relative="1" as="geometry">
            <Array as="points" />
            <mxPoint x="-741.8200000000002" y="526" as="sourcePoint" />
            <mxPoint x="-741" y="1180" as="targetPoint" />
          </mxGeometry>
        </mxCell>
        <mxCell id="BXh9d_WbOHaoUhnF2Wcy-52" style="edgeStyle=orthogonalEdgeStyle;rounded=0;orthogonalLoop=1;jettySize=auto;html=1;exitX=0;exitY=0.5;exitDx=0;exitDy=0;endArrow=oval;endFill=0;" edge="1" parent="1">
          <mxGeometry relative="1" as="geometry">
            <mxPoint x="-770" y="519.11" as="targetPoint" />
            <mxPoint x="-750" y="516.2250000000001" as="sourcePoint" />
            <Array as="points">
              <mxPoint x="-750" y="519.11" />
            </Array>
          </mxGeometry>
        </mxCell>
        <mxCell id="BXh9d_WbOHaoUhnF2Wcy-53" value="Visitatore" style="whiteSpace=wrap;html=1;align=center;" vertex="1" parent="1">
          <mxGeometry x="-750" y="489.11" width="60" height="40.01" as="geometry" />
        </mxCell>
        <mxCell id="BXh9d_WbOHaoUhnF2Wcy-54" value="Visore VR" style="whiteSpace=wrap;html=1;align=center;" vertex="1" parent="1">
          <mxGeometry x="-482.40000000000003" y="499.13" width="77.5" height="20" as="geometry" />
        </mxCell>
        <mxCell id="BXh9d_WbOHaoUhnF2Wcy-55" style="edgeStyle=orthogonalEdgeStyle;rounded=0;orthogonalLoop=1;jettySize=auto;html=1;exitX=0;exitY=0.5;exitDx=0;exitDy=0;endArrow=oval;endFill=0;" edge="1" source="BXh9d_WbOHaoUhnF2Wcy-56" parent="1">
          <mxGeometry relative="1" as="geometry">
            <mxPoint x="-179.55" y="724.03" as="targetPoint" />
            <Array as="points">
              <mxPoint x="-156.55" y="724.03" />
            </Array>
          </mxGeometry>
        </mxCell>
        <mxCell id="BXh9d_WbOHaoUhnF2Wcy-56" value="Abbigliamento" style="whiteSpace=wrap;html=1;align=center;" vertex="1" parent="1">
          <mxGeometry x="-157.05" y="697.78" width="85" height="30" as="geometry" />
        </mxCell>
        <mxCell id="BXh9d_WbOHaoUhnF2Wcy-57" value="Creazione" style="shape=rhombus;perimeter=rhombusPerimeter;whiteSpace=wrap;html=1;align=center;" vertex="1" parent="1">
          <mxGeometry x="-780.5" y="569.6400000000001" width="77.5" height="45" as="geometry" />
        </mxCell>
        <mxCell id="BXh9d_WbOHaoUhnF2Wcy-58" value="&lt;font style=&quot;font-size: 8px;&quot;&gt;Nome&lt;/font&gt;" style="text;html=1;align=center;verticalAlign=middle;whiteSpace=wrap;rounded=0;" vertex="1" parent="1">
          <mxGeometry x="-750" y="456.62" width="25" height="10" as="geometry" />
        </mxCell>
        <mxCell id="BXh9d_WbOHaoUhnF2Wcy-59" value="&lt;font style=&quot;font-size: 8px;&quot;&gt;Cognome&lt;/font&gt;" style="text;html=1;align=center;verticalAlign=middle;whiteSpace=wrap;rounded=0;" vertex="1" parent="1">
          <mxGeometry x="-730" y="446.62" width="60" height="30" as="geometry" />
        </mxCell>
        <mxCell id="BXh9d_WbOHaoUhnF2Wcy-60" value="&lt;font style=&quot;font-size: 8px;&quot;&gt;Periodo storico&lt;/font&gt;" style="text;html=1;align=center;verticalAlign=middle;whiteSpace=wrap;rounded=0;" vertex="1" parent="1">
          <mxGeometry x="-124" y="482" width="70" height="30" as="geometry" />
        </mxCell>
        <mxCell id="BXh9d_WbOHaoUhnF2Wcy-61" value="&lt;font style=&quot;font-size: 8px;&quot;&gt;Nome&lt;/font&gt;" style="text;html=1;align=center;verticalAlign=middle;whiteSpace=wrap;rounded=0;" vertex="1" parent="1">
          <mxGeometry x="-168" y="482" width="60" height="30" as="geometry" />
        </mxCell>
        <mxCell id="BXh9d_WbOHaoUhnF2Wcy-62" value="&lt;font style=&quot;font-size: 8px;&quot;&gt;Misura&lt;/font&gt;" style="text;html=1;align=center;verticalAlign=middle;whiteSpace=wrap;rounded=1;strokeColor=none;" vertex="1" parent="1">
          <mxGeometry x="-316.53000000000003" y="452" width="50" height="12" as="geometry" />
        </mxCell>
        <mxCell id="BXh9d_WbOHaoUhnF2Wcy-63" value="&lt;font style=&quot;font-size: 8px;&quot;&gt;Modello&lt;/font&gt;" style="text;html=1;align=center;verticalAlign=middle;whiteSpace=wrap;rounded=1;strokeColor=none;" vertex="1" parent="1">
          <mxGeometry x="-357.40000000000003" y="394.76" width="40" height="20" as="geometry" />
        </mxCell>
        <mxCell id="BXh9d_WbOHaoUhnF2Wcy-64" value="&lt;font style=&quot;font-size: 8px;&quot;&gt;Marca&lt;/font&gt;" style="text;html=1;align=center;verticalAlign=middle;whiteSpace=wrap;rounded=1;strokeColor=none;glass=0;" vertex="1" parent="1">
          <mxGeometry x="-396.77000000000004" y="397.26" width="50" height="15" as="geometry" />
        </mxCell>
        <mxCell id="BXh9d_WbOHaoUhnF2Wcy-65" value="&lt;font style=&quot;font-size: 8px;&quot;&gt;Esperienza&lt;/font&gt;" style="text;html=1;align=center;verticalAlign=middle;whiteSpace=wrap;rounded=1;strokeColor=none;" vertex="1" parent="1">
          <mxGeometry x="-819.0999999999999" y="756.04" width="49" height="23" as="geometry" />
        </mxCell>
        <mxCell id="BXh9d_WbOHaoUhnF2Wcy-66" value="&lt;font style=&quot;font-size: 9px;&quot;&gt;Materiale&lt;/font&gt;" style="text;html=1;align=center;verticalAlign=middle;whiteSpace=wrap;rounded=0;" vertex="1" parent="1">
          <mxGeometry x="-219.55" y="695.78" width="35" height="15" as="geometry" />
        </mxCell>
        <mxCell id="BXh9d_WbOHaoUhnF2Wcy-67" value="" style="curved=1;endArrow=oval;html=1;rounded=0;entryX=0.642;entryY=0.924;entryDx=0;entryDy=0;entryPerimeter=0;endFill=1;" edge="1" parent="1">
          <mxGeometry width="50" height="50" relative="1" as="geometry">
            <mxPoint x="-159.55" y="686.53" as="sourcePoint" />
            <mxPoint x="-54.55000000000001" y="674.53" as="targetPoint" />
            <Array as="points">
              <mxPoint x="-109.55000000000001" y="686.53" />
              <mxPoint x="-59.55000000000001" y="686.53" />
            </Array>
          </mxGeometry>
        </mxCell>
        <mxCell id="BXh9d_WbOHaoUhnF2Wcy-68" value="&lt;font style=&quot;font-size: 9px;&quot;&gt;Descrizione&lt;/font&gt;" style="text;html=1;align=center;verticalAlign=middle;whiteSpace=wrap;rounded=0;" vertex="1" parent="1">
          <mxGeometry x="186.25999999999993" y="743.9800000000001" width="35" height="15" as="geometry" />
        </mxCell>
        <mxCell id="BXh9d_WbOHaoUhnF2Wcy-69" value="&lt;font style=&quot;font-size: 9px;&quot;&gt;Nome&lt;/font&gt;" style="text;html=1;align=center;verticalAlign=middle;whiteSpace=wrap;rounded=0;" vertex="1" parent="1">
          <mxGeometry x="133.26" y="743.9800000000001" width="35" height="15" as="geometry" />
        </mxCell>
        <mxCell id="BXh9d_WbOHaoUhnF2Wcy-70" value="" style="curved=1;endArrow=oval;html=1;rounded=0;endFill=1;" edge="1" parent="1">
          <mxGeometry width="50" height="50" relative="1" as="geometry">
            <mxPoint x="178.63999999999993" y="766.1300000000001" as="sourcePoint" />
            <mxPoint x="116.38999999999999" y="812" as="targetPoint" />
            <Array as="points">
              <mxPoint x="118.63999999999999" y="766.1300000000001" />
              <mxPoint x="116.38999999999999" y="815.73" />
            </Array>
          </mxGeometry>
        </mxCell>
        <mxCell id="BXh9d_WbOHaoUhnF2Wcy-71" style="edgeStyle=orthogonalEdgeStyle;rounded=0;orthogonalLoop=1;jettySize=auto;html=1;exitX=0.25;exitY=0;exitDx=0;exitDy=0;endArrow=oval;endFill=0;" edge="1" source="BXh9d_WbOHaoUhnF2Wcy-74" parent="1">
          <mxGeometry relative="1" as="geometry">
            <mxPoint x="188" y="505.63" as="targetPoint" />
          </mxGeometry>
        </mxCell>
        <mxCell id="BXh9d_WbOHaoUhnF2Wcy-72" style="edgeStyle=orthogonalEdgeStyle;rounded=0;orthogonalLoop=1;jettySize=auto;html=1;exitX=0.75;exitY=0;exitDx=0;exitDy=0;endArrow=oval;endFill=0;" edge="1" parent="1">
          <mxGeometry relative="1" as="geometry">
            <mxPoint x="252.72999999999996" y="505.65" as="targetPoint" />
            <mxPoint x="253.69999999999987" y="522.13" as="sourcePoint" />
          </mxGeometry>
        </mxCell>
        <mxCell id="BXh9d_WbOHaoUhnF2Wcy-73" style="edgeStyle=orthogonalEdgeStyle;rounded=0;orthogonalLoop=1;jettySize=auto;html=1;exitX=1;exitY=0.5;exitDx=0;exitDy=0;entryX=0.25;entryY=1;entryDx=0;entryDy=0;endArrow=oval;endFill=0;" edge="1" parent="1">
          <mxGeometry relative="1" as="geometry">
            <mxPoint x="254.29999999999995" y="593.255" as="sourcePoint" />
            <mxPoint x="290.29999999999995" y="585.63" as="targetPoint" />
          </mxGeometry>
        </mxCell>
        <mxCell id="BXh9d_WbOHaoUhnF2Wcy-74" value="Esperienza" style="whiteSpace=wrap;html=1;align=center;" vertex="1" parent="1">
          <mxGeometry x="166.88999999999996" y="522.11" width="90" height="28.75" as="geometry" />
        </mxCell>
        <mxCell id="BXh9d_WbOHaoUhnF2Wcy-75" value="Mosaici" style="whiteSpace=wrap;html=1;align=center;" vertex="1" parent="1">
          <mxGeometry x="57.00999999999999" y="845.9100000000001" width="80" height="18.5" as="geometry" />
        </mxCell>
        <mxCell id="BXh9d_WbOHaoUhnF2Wcy-76" value="&lt;font style=&quot;font-size: 8px;&quot;&gt;Nome&lt;/font&gt;" style="text;html=1;align=center;verticalAlign=middle;whiteSpace=wrap;rounded=1;strokeColor=none;" vertex="1" parent="1">
          <mxGeometry x="169.04999999999995" y="485.65000000000003" width="40" height="20" as="geometry" />
        </mxCell>
        <mxCell id="BXh9d_WbOHaoUhnF2Wcy-77" value="&lt;font style=&quot;font-size: 8px;&quot;&gt;Descrizione&lt;/font&gt;" style="text;html=1;align=center;verticalAlign=middle;whiteSpace=wrap;rounded=1;strokeColor=none;" vertex="1" parent="1">
          <mxGeometry x="237.41999999999996" y="485.75000000000006" width="40" height="20" as="geometry" />
        </mxCell>
        <mxCell id="BXh9d_WbOHaoUhnF2Wcy-78" value="&lt;font style=&quot;font-size: 8px;&quot;&gt;Durata&lt;/font&gt;" style="text;html=1;align=center;verticalAlign=middle;whiteSpace=wrap;rounded=1;strokeColor=none;" vertex="1" parent="1">
          <mxGeometry x="278.41999999999996" y="519.13" width="40" height="20" as="geometry" />
        </mxCell>
        <mxCell id="BXh9d_WbOHaoUhnF2Wcy-79" value="&lt;font style=&quot;font-size: 8px;&quot;&gt;(1,1)&lt;/font&gt;" style="text;html=1;align=center;verticalAlign=middle;whiteSpace=wrap;rounded=1;strokeColor=none;glass=0;" vertex="1" parent="1">
          <mxGeometry x="-755.1099999999999" y="611.6400000000001" width="50" height="15" as="geometry" />
        </mxCell>
        <mxCell id="BXh9d_WbOHaoUhnF2Wcy-80" value="&lt;font style=&quot;font-size: 8px;&quot;&gt;(1,1)&lt;/font&gt;" style="text;html=1;align=center;verticalAlign=middle;whiteSpace=wrap;rounded=1;strokeColor=none;glass=0;" vertex="1" parent="1">
          <mxGeometry x="-755.1099999999999" y="553.3100000000001" width="50" height="15" as="geometry" />
        </mxCell>
        <mxCell id="BXh9d_WbOHaoUhnF2Wcy-81" value="&lt;span style=&quot;font-size: 8px;&quot;&gt;(0,N)&lt;/span&gt;" style="text;html=1;align=center;verticalAlign=middle;whiteSpace=wrap;rounded=1;strokeColor=none;glass=0;" vertex="1" parent="1">
          <mxGeometry x="-22.299999999999997" y="517.63" width="50" height="15" as="geometry" />
        </mxCell>
        <mxCell id="BXh9d_WbOHaoUhnF2Wcy-82" value="&lt;span style=&quot;font-size: 8px;&quot;&gt;(1,1)&lt;/span&gt;" style="text;html=1;align=center;verticalAlign=middle;whiteSpace=wrap;rounded=1;strokeColor=none;glass=0;" vertex="1" parent="1">
          <mxGeometry x="57.00999999999998" y="517.63" width="50" height="15" as="geometry" />
        </mxCell>
        <mxCell id="BXh9d_WbOHaoUhnF2Wcy-83" value="&lt;font style=&quot;font-size: 8px;&quot;&gt;Luogo&lt;/font&gt;" style="text;html=1;align=center;verticalAlign=middle;whiteSpace=wrap;rounded=1;strokeColor=none;" vertex="1" parent="1">
          <mxGeometry x="277.41999999999996" y="532.63" width="40" height="20" as="geometry" />
        </mxCell>
        <mxCell id="BXh9d_WbOHaoUhnF2Wcy-84" value="&lt;font style=&quot;font-size: 8px;&quot;&gt;(1,N)&lt;/font&gt;" style="text;html=1;align=center;verticalAlign=middle;whiteSpace=wrap;rounded=1;strokeColor=none;glass=0;" vertex="1" parent="1">
          <mxGeometry x="-79.55000000000001" y="702.78" width="50" height="15" as="geometry" />
        </mxCell>
        <mxCell id="BXh9d_WbOHaoUhnF2Wcy-85" style="edgeStyle=orthogonalEdgeStyle;rounded=0;orthogonalLoop=1;jettySize=auto;html=1;exitX=0.5;exitY=1;exitDx=0;exitDy=0;" edge="1" parent="1">
          <mxGeometry relative="1" as="geometry">
            <mxPoint x="-0.8300000000000551" y="533.57" as="sourcePoint" />
            <mxPoint x="-0.8300000000000551" y="533.57" as="targetPoint" />
          </mxGeometry>
        </mxCell>
        <mxCell id="BXh9d_WbOHaoUhnF2Wcy-86" value="Guanti Haptic" style="whiteSpace=wrap;html=1;align=center;" vertex="1" parent="1">
          <mxGeometry x="-357.40000000000003" y="499.13" width="77.5" height="20" as="geometry" />
        </mxCell>
        <mxCell id="BXh9d_WbOHaoUhnF2Wcy-87" value="&lt;font style=&quot;font-size: 8px;&quot;&gt;(1,1)&lt;/font&gt;" style="text;html=1;align=center;verticalAlign=middle;whiteSpace=wrap;rounded=1;strokeColor=none;glass=0;" vertex="1" parent="1">
          <mxGeometry x="67.69999999999999" y="642.7600000000001" width="50" height="15" as="geometry" />
        </mxCell>
        <mxCell id="BXh9d_WbOHaoUhnF2Wcy-88" value="&lt;span style=&quot;font-size: 8px;&quot;&gt;(1,N)&lt;/span&gt;" style="text;html=1;align=center;verticalAlign=middle;whiteSpace=wrap;rounded=1;strokeColor=none;glass=0;" vertex="1" parent="1">
          <mxGeometry x="-21.120000000000015" y="640.3900000000001" width="50" height="15" as="geometry" />
        </mxCell>
        <mxCell id="BXh9d_WbOHaoUhnF2Wcy-89" value="&lt;font style=&quot;font-size: 8px;&quot;&gt;CF&lt;/font&gt;" style="text;html=1;align=center;verticalAlign=middle;whiteSpace=wrap;rounded=0;" vertex="1" parent="1">
          <mxGeometry x="-790" y="493.49" width="20" height="10" as="geometry" />
        </mxCell>
        <mxCell id="BXh9d_WbOHaoUhnF2Wcy-90" style="edgeStyle=orthogonalEdgeStyle;rounded=0;orthogonalLoop=1;jettySize=auto;html=1;exitX=0;exitY=0;exitDx=0;exitDy=0;endArrow=oval;endFill=0;" edge="1" parent="1">
          <mxGeometry relative="1" as="geometry">
            <mxPoint x="-740" y="471.11" as="targetPoint" />
            <mxPoint x="-740" y="489.11" as="sourcePoint" />
            <Array as="points" />
          </mxGeometry>
        </mxCell>
        <mxCell id="BXh9d_WbOHaoUhnF2Wcy-91" style="edgeStyle=orthogonalEdgeStyle;rounded=0;orthogonalLoop=1;jettySize=auto;html=1;exitX=0;exitY=0;exitDx=0;exitDy=0;endArrow=oval;endFill=0;" edge="1" parent="1">
          <mxGeometry relative="1" as="geometry">
            <mxPoint x="-700" y="471.11" as="targetPoint" />
            <mxPoint x="-700" y="489.11" as="sourcePoint" />
            <Array as="points" />
          </mxGeometry>
        </mxCell>
        <mxCell id="BXh9d_WbOHaoUhnF2Wcy-92" value="&lt;font style=&quot;font-size: 8px;&quot;&gt;Email&lt;/font&gt;" style="text;html=1;align=center;verticalAlign=middle;whiteSpace=wrap;rounded=0;" vertex="1" parent="1">
          <mxGeometry x="-800" y="515.11" width="30" height="7" as="geometry" />
        </mxCell>
        <mxCell id="BXh9d_WbOHaoUhnF2Wcy-93" style="edgeStyle=orthogonalEdgeStyle;rounded=0;orthogonalLoop=1;jettySize=auto;html=1;exitX=0;exitY=0.25;exitDx=0;exitDy=0;endArrow=oval;endFill=1;" edge="1" source="BXh9d_WbOHaoUhnF2Wcy-53" parent="1">
          <mxGeometry relative="1" as="geometry">
            <mxPoint x="-770" y="499.11" as="targetPoint" />
            <mxPoint x="-815" y="477.87" as="sourcePoint" />
            <Array as="points" />
          </mxGeometry>
        </mxCell>
        <mxCell id="BXh9d_WbOHaoUhnF2Wcy-94" style="edgeStyle=orthogonalEdgeStyle;rounded=0;orthogonalLoop=1;jettySize=auto;html=1;exitX=0;exitY=0.25;exitDx=0;exitDy=0;endArrow=oval;endFill=1;" edge="1" parent="1">
          <mxGeometry relative="1" as="geometry">
            <mxPoint x="-769.5999999999999" y="757.98" as="targetPoint" />
            <mxPoint x="-749.5999999999999" y="757.75" as="sourcePoint" />
            <Array as="points">
              <mxPoint x="-759.5999999999999" y="757.98" />
            </Array>
          </mxGeometry>
        </mxCell>
        <mxCell id="BXh9d_WbOHaoUhnF2Wcy-95" value="&lt;font style=&quot;font-size: 8px;&quot;&gt;Nickname&lt;/font&gt;" style="text;html=1;align=center;verticalAlign=middle;whiteSpace=wrap;rounded=1;strokeColor=none;" vertex="1" parent="1">
          <mxGeometry x="-809.5999999999999" y="743.98" width="30" height="23.5" as="geometry" />
        </mxCell>
        <mxCell id="BXh9d_WbOHaoUhnF2Wcy-96" value="&lt;font style=&quot;font-size: 9px;&quot;&gt;Descrizione&lt;/font&gt;" style="text;html=1;align=center;verticalAlign=middle;whiteSpace=wrap;rounded=0;" vertex="1" parent="1">
          <mxGeometry x="-229.55" y="712.78" width="40" height="17" as="geometry" />
        </mxCell>
        <mxCell id="BXh9d_WbOHaoUhnF2Wcy-97" value="&lt;font style=&quot;font-size: 9px;&quot;&gt;Colore&lt;/font&gt;" style="text;html=1;align=center;verticalAlign=middle;whiteSpace=wrap;rounded=0;" vertex="1" parent="1">
          <mxGeometry x="-42.05000000000001" y="710.78" width="40" height="17" as="geometry" />
        </mxCell>
        <mxCell id="BXh9d_WbOHaoUhnF2Wcy-98" style="edgeStyle=orthogonalEdgeStyle;rounded=0;orthogonalLoop=1;jettySize=auto;html=1;exitX=1.011;exitY=0.878;exitDx=0;exitDy=0;endArrow=oval;endFill=0;exitPerimeter=0;" edge="1" parent="1">
          <mxGeometry relative="1" as="geometry">
            <mxPoint x="-72.04500000000007" y="721.23" as="sourcePoint" />
            <mxPoint x="-40.48000000000002" y="721.14" as="targetPoint" />
            <Array as="points">
              <mxPoint x="-60.48000000000002" y="721.14" />
              <mxPoint x="-60.48000000000002" y="721.14" />
            </Array>
          </mxGeometry>
        </mxCell>
        <mxCell id="BXh9d_WbOHaoUhnF2Wcy-99" value="&lt;font style=&quot;font-size: 9px;&quot;&gt;Nome&lt;/font&gt;" style="text;html=1;align=center;verticalAlign=middle;whiteSpace=wrap;rounded=0;" vertex="1" parent="1">
          <mxGeometry x="-164.55" y="654.03" width="40" height="17" as="geometry" />
        </mxCell>
        <mxCell id="BXh9d_WbOHaoUhnF2Wcy-100" style="edgeStyle=orthogonalEdgeStyle;rounded=0;orthogonalLoop=1;jettySize=auto;html=1;endArrow=oval;endFill=0;" edge="1" parent="1">
          <mxGeometry relative="1" as="geometry">
            <mxPoint x="-157.05" y="705.4" as="sourcePoint" />
            <mxPoint x="-179.05" y="705.15" as="targetPoint" />
            <Array as="points">
              <mxPoint x="-157.05" y="705.4" />
              <mxPoint x="-156.05" y="705.4" />
            </Array>
          </mxGeometry>
        </mxCell>
        <mxCell id="BXh9d_WbOHaoUhnF2Wcy-101" style="edgeStyle=orthogonalEdgeStyle;rounded=0;orthogonalLoop=1;jettySize=auto;html=1;endArrow=oval;endFill=0;" edge="1" parent="1">
          <mxGeometry relative="1" as="geometry">
            <mxPoint x="-144.55" y="697.78" as="sourcePoint" />
            <mxPoint x="-144.55" y="674.03" as="targetPoint" />
            <Array as="points">
              <mxPoint x="-144.55" y="697.78" />
            </Array>
          </mxGeometry>
        </mxCell>
        <mxCell id="BXh9d_WbOHaoUhnF2Wcy-102" value="&lt;font style=&quot;font-size: 8px;&quot;&gt;(1,1)&lt;/font&gt;" style="text;html=1;align=center;verticalAlign=middle;whiteSpace=wrap;rounded=1;strokeColor=none;glass=0;" vertex="1" parent="1">
          <mxGeometry x="-112.05000000000001" y="647.28" width="22.5" height="6.75" as="geometry" />
        </mxCell>
        <mxCell id="BXh9d_WbOHaoUhnF2Wcy-103" value="" style="edgeStyle=orthogonalEdgeStyle;rounded=0;orthogonalLoop=1;jettySize=auto;html=1;endArrow=none;endFill=0;exitX=-0.05;exitY=0.91;exitDx=0;exitDy=0;exitPerimeter=0;" edge="1" target="BXh9d_WbOHaoUhnF2Wcy-104" parent="1">
          <mxGeometry relative="1" as="geometry">
            <mxPoint x="-115.12" y="618.63" as="sourcePoint" />
            <mxPoint x="-115.12" y="698.98" as="targetPoint" />
          </mxGeometry>
        </mxCell>
        <mxCell id="BXh9d_WbOHaoUhnF2Wcy-104" value="Appartenenza" style="shape=rhombus;perimeter=rhombusPerimeter;whiteSpace=wrap;html=1;align=center;" vertex="1" parent="1">
          <mxGeometry x="-161.37" y="597.23" width="92.5" height="51" as="geometry" />
        </mxCell>
        <mxCell id="BXh9d_WbOHaoUhnF2Wcy-105" value="" style="endArrow=none;html=1;rounded=0;entryX=0.5;entryY=1;entryDx=0;entryDy=0;exitX=0.5;exitY=0;exitDx=0;exitDy=0;" edge="1" source="BXh9d_WbOHaoUhnF2Wcy-56" parent="1">
          <mxGeometry width="50" height="50" relative="1" as="geometry">
            <mxPoint x="-159.55" y="704.03" as="sourcePoint" />
            <mxPoint x="-114.5499999999999" y="647.2799999999999" as="targetPoint" />
          </mxGeometry>
        </mxCell>
        <mxCell id="BXh9d_WbOHaoUhnF2Wcy-106" value="" style="endArrow=none;html=1;rounded=0;exitX=0.5;exitY=0;exitDx=0;exitDy=0;" edge="1" source="BXh9d_WbOHaoUhnF2Wcy-104" parent="1">
          <mxGeometry width="50" height="50" relative="1" as="geometry">
            <mxPoint x="-80.12" y="584.98" as="sourcePoint" />
            <mxPoint x="-115" y="550" as="targetPoint" />
          </mxGeometry>
        </mxCell>
        <mxCell id="BXh9d_WbOHaoUhnF2Wcy-107" value="" style="shape=flexArrow;endArrow=classic;html=1;rounded=0;fillColor=#000000;endWidth=19.23076923076923;endSize=3.848717948717949;exitX=0.513;exitY=0.543;exitDx=0;exitDy=0;exitPerimeter=0;" edge="1" source="BXh9d_WbOHaoUhnF2Wcy-109" parent="1">
          <mxGeometry width="50" height="50" relative="1" as="geometry">
            <mxPoint x="-114.55000000000001" y="754.03" as="sourcePoint" />
            <mxPoint x="-114.70999999999998" y="727.78" as="targetPoint" />
          </mxGeometry>
        </mxCell>
        <mxCell id="BXh9d_WbOHaoUhnF2Wcy-108" value="&lt;font style=&quot;font-size: 9px;&quot;&gt;Stile&lt;/font&gt;" style="text;html=1;align=center;verticalAlign=middle;whiteSpace=wrap;rounded=0;" vertex="1" parent="1">
          <mxGeometry x="-252" y="760" width="40" height="15" as="geometry" />
        </mxCell>
        <mxCell id="BXh9d_WbOHaoUhnF2Wcy-109" value="" style="line;strokeWidth=1;rotatable=0;dashed=0;labelPosition=right;align=left;verticalAlign=middle;spacingTop=0;spacingLeft=6;points=[];portConstraint=eastwest;" vertex="1" parent="1">
          <mxGeometry x="-185.55" y="748.28" width="138" height="10" as="geometry" />
        </mxCell>
        <mxCell id="BXh9d_WbOHaoUhnF2Wcy-110" value="" style="endArrow=none;html=1;rounded=0;exitX=0.5;exitY=0;exitDx=0;exitDy=0;" edge="1" source="BXh9d_WbOHaoUhnF2Wcy-54" parent="1">
          <mxGeometry width="50" height="50" relative="1" as="geometry">
            <mxPoint x="-500.53" y="491.00000000000006" as="sourcePoint" />
            <mxPoint x="-443.53000000000003" y="486.00000000000006" as="targetPoint" />
          </mxGeometry>
        </mxCell>
        <mxCell id="BXh9d_WbOHaoUhnF2Wcy-111" value="" style="endArrow=none;html=1;rounded=0;" edge="1" parent="1">
          <mxGeometry width="50" height="50" relative="1" as="geometry">
            <mxPoint x="-444.03000000000003" y="486.00000000000006" as="sourcePoint" />
            <mxPoint x="-320.03000000000003" y="486.00000000000006" as="targetPoint" />
          </mxGeometry>
        </mxCell>
        <mxCell id="BXh9d_WbOHaoUhnF2Wcy-112" value="" style="shape=singleArrow;direction=north;whiteSpace=wrap;html=1;arrowWidth=0.3808905843098993;arrowSize=0.6576580700573631;" vertex="1" parent="1">
          <mxGeometry x="-396.15000000000003" y="467.25" width="30" height="18.5" as="geometry" />
        </mxCell>
        <mxCell id="BXh9d_WbOHaoUhnF2Wcy-113" value="" style="endArrow=none;html=1;rounded=0;entryX=0.476;entryY=-0.004;entryDx=0;entryDy=0;entryPerimeter=0;" edge="1" target="BXh9d_WbOHaoUhnF2Wcy-86" parent="1">
          <mxGeometry width="50" height="50" relative="1" as="geometry">
            <mxPoint x="-320.53000000000003" y="486.00000000000006" as="sourcePoint" />
            <mxPoint x="-240.53" y="441" as="targetPoint" />
          </mxGeometry>
        </mxCell>
        <mxCell id="BXh9d_WbOHaoUhnF2Wcy-114" style="edgeStyle=orthogonalEdgeStyle;rounded=0;orthogonalLoop=1;jettySize=auto;html=1;exitX=0;exitY=0;exitDx=0;exitDy=0;endArrow=oval;endFill=1;" edge="1" parent="1">
          <mxGeometry relative="1" as="geometry">
            <mxPoint x="-428.65000000000003" y="414.25" as="targetPoint" />
            <mxPoint x="-428.65000000000003" y="432.25" as="sourcePoint" />
            <Array as="points" />
          </mxGeometry>
        </mxCell>
        <mxCell id="BXh9d_WbOHaoUhnF2Wcy-115" value="&lt;font style=&quot;font-size: 8px;&quot;&gt;Numero di serie&lt;/font&gt;" style="text;html=1;align=center;verticalAlign=middle;whiteSpace=wrap;rounded=1;strokeColor=none;glass=0;" vertex="1" parent="1">
          <mxGeometry x="-458.02000000000004" y="401.01" width="65.62" height="7.5" as="geometry" />
        </mxCell>
        <mxCell id="BXh9d_WbOHaoUhnF2Wcy-116" style="edgeStyle=orthogonalEdgeStyle;rounded=0;orthogonalLoop=1;jettySize=auto;html=1;exitX=0;exitY=0;exitDx=0;exitDy=0;endArrow=oval;endFill=0;" edge="1" parent="1">
          <mxGeometry relative="1" as="geometry">
            <mxPoint x="-371.65000000000003" y="414.25" as="targetPoint" />
            <mxPoint x="-371.65000000000003" y="432.25" as="sourcePoint" />
            <Array as="points" />
          </mxGeometry>
        </mxCell>
        <mxCell id="BXh9d_WbOHaoUhnF2Wcy-117" style="edgeStyle=orthogonalEdgeStyle;rounded=0;orthogonalLoop=1;jettySize=auto;html=1;exitX=0;exitY=0;exitDx=0;exitDy=0;endArrow=oval;endFill=0;" edge="1" parent="1">
          <mxGeometry relative="1" as="geometry">
            <mxPoint x="-339.90000000000003" y="414.25" as="targetPoint" />
            <mxPoint x="-339.90000000000003" y="432.25" as="sourcePoint" />
            <Array as="points" />
          </mxGeometry>
        </mxCell>
        <mxCell id="BXh9d_WbOHaoUhnF2Wcy-118" style="edgeStyle=orthogonalEdgeStyle;rounded=0;orthogonalLoop=1;jettySize=auto;html=1;exitX=1;exitY=0.5;exitDx=0;exitDy=0;endArrow=oval;endFill=0;" edge="1" parent="1">
          <mxGeometry relative="1" as="geometry">
            <mxPoint x="-333.65000000000003" y="460.22" as="sourcePoint" />
            <mxPoint x="-310.53000000000003" y="460.22" as="targetPoint" />
          </mxGeometry>
        </mxCell>
        <mxCell id="BXh9d_WbOHaoUhnF2Wcy-119" style="edgeStyle=orthogonalEdgeStyle;rounded=0;orthogonalLoop=1;jettySize=auto;html=1;exitX=1;exitY=0.5;exitDx=0;exitDy=0;endArrow=oval;endFill=0;" edge="1" parent="1">
          <mxGeometry relative="1" as="geometry">
            <mxPoint x="-333.65000000000003" y="435.38" as="sourcePoint" />
            <mxPoint x="-310.53000000000003" y="435.38" as="targetPoint" />
          </mxGeometry>
        </mxCell>
        <mxCell id="BXh9d_WbOHaoUhnF2Wcy-120" value="&lt;font style=&quot;font-size: 8px;&quot;&gt;Tecnologia&lt;/font&gt;" style="text;html=1;align=center;verticalAlign=middle;whiteSpace=wrap;rounded=1;strokeColor=none;" vertex="1" parent="1">
          <mxGeometry x="-308.65000000000003" y="424.38" width="46" height="19" as="geometry" />
        </mxCell>
        <mxCell id="BXh9d_WbOHaoUhnF2Wcy-121" value="&lt;p style=&quot;line-height: 70%;&quot;&gt;&lt;font style=&quot;font-size: 9px;&quot;&gt;Area Geografica&lt;/font&gt;&lt;/p&gt;" style="text;html=1;align=center;verticalAlign=middle;whiteSpace=wrap;rounded=0;" vertex="1" parent="1">
          <mxGeometry x="-188.19" y="574.9200000000001" width="60" height="30" as="geometry" />
        </mxCell>
        <mxCell id="BXh9d_WbOHaoUhnF2Wcy-122" value="" style="shape=singleArrow;direction=north;whiteSpace=wrap;html=1;arrowWidth=0.3808905843098993;arrowSize=0.6576580700573631;" vertex="1" parent="1">
          <mxGeometry x="197.41999999999996" y="551" width="30" height="18" as="geometry" />
        </mxCell>
        <mxCell id="BXh9d_WbOHaoUhnF2Wcy-123" value="Evento Storico" style="whiteSpace=wrap;html=1;align=center;" vertex="1" parent="1">
          <mxGeometry x="111.17000000000002" y="582.26" width="82" height="20" as="geometry" />
        </mxCell>
        <mxCell id="BXh9d_WbOHaoUhnF2Wcy-124" value="Attività&lt;div&gt;Quotidiane&lt;/div&gt;" style="whiteSpace=wrap;html=1;align=center;" vertex="1" parent="1">
          <mxGeometry x="236.16999999999996" y="582.26" width="77.5" height="30" as="geometry" />
        </mxCell>
        <mxCell id="BXh9d_WbOHaoUhnF2Wcy-125" value="" style="endArrow=none;html=1;rounded=0;exitX=0.475;exitY=0.003;exitDx=0;exitDy=0;exitPerimeter=0;" edge="1" source="BXh9d_WbOHaoUhnF2Wcy-123" parent="1">
          <mxGeometry width="50" height="50" relative="1" as="geometry">
            <mxPoint x="93.04000000000002" y="574.13" as="sourcePoint" />
            <mxPoint x="150.04000000000002" y="569.13" as="targetPoint" />
          </mxGeometry>
        </mxCell>
        <mxCell id="BXh9d_WbOHaoUhnF2Wcy-126" value="" style="endArrow=none;html=1;rounded=0;" edge="1" parent="1">
          <mxGeometry width="50" height="50" relative="1" as="geometry">
            <mxPoint x="149.54000000000002" y="569.13" as="sourcePoint" />
            <mxPoint x="273.53999999999996" y="569.13" as="targetPoint" />
          </mxGeometry>
        </mxCell>
        <mxCell id="BXh9d_WbOHaoUhnF2Wcy-127" value="" style="endArrow=none;html=1;rounded=0;entryX=0.476;entryY=-0.004;entryDx=0;entryDy=0;entryPerimeter=0;" edge="1" target="BXh9d_WbOHaoUhnF2Wcy-124" parent="1">
          <mxGeometry width="50" height="50" relative="1" as="geometry">
            <mxPoint x="273.03999999999996" y="569.13" as="sourcePoint" />
            <mxPoint x="353.04" y="524.13" as="targetPoint" />
          </mxGeometry>
        </mxCell>
        <mxCell id="BXh9d_WbOHaoUhnF2Wcy-128" style="edgeStyle=orthogonalEdgeStyle;rounded=0;orthogonalLoop=1;jettySize=auto;html=1;exitX=1;exitY=0.5;exitDx=0;exitDy=0;endArrow=oval;endFill=0;" edge="1" parent="1">
          <mxGeometry relative="1" as="geometry">
            <mxPoint x="257.41999999999996" y="530.9300000000001" as="sourcePoint" />
            <mxPoint x="280.53999999999996" y="530.9300000000001" as="targetPoint" />
          </mxGeometry>
        </mxCell>
        <mxCell id="BXh9d_WbOHaoUhnF2Wcy-129" style="edgeStyle=orthogonalEdgeStyle;rounded=0;orthogonalLoop=1;jettySize=auto;html=1;exitX=1;exitY=0.5;exitDx=0;exitDy=0;endArrow=oval;endFill=0;" edge="1" parent="1">
          <mxGeometry relative="1" as="geometry">
            <mxPoint x="257.41999999999996" y="544.63" as="sourcePoint" />
            <mxPoint x="280.41999999999996" y="544.63" as="targetPoint" />
            <Array as="points">
              <mxPoint x="273.41999999999996" y="544.63" />
            </Array>
          </mxGeometry>
        </mxCell>
        <mxCell id="BXh9d_WbOHaoUhnF2Wcy-130" value="Collezione" style="whiteSpace=wrap;html=1;align=center;" vertex="1" parent="1">
          <mxGeometry x="133.26" y="777.2300000000001" width="90" height="28.75" as="geometry" />
        </mxCell>
        <mxCell id="BXh9d_WbOHaoUhnF2Wcy-131" style="edgeStyle=orthogonalEdgeStyle;rounded=0;orthogonalLoop=1;jettySize=auto;html=1;exitX=0.75;exitY=0;exitDx=0;exitDy=0;endArrow=oval;endFill=0;" edge="1" parent="1">
          <mxGeometry relative="1" as="geometry">
            <mxPoint x="153.00999999999993" y="777.2200000000001" as="sourcePoint" />
            <mxPoint x="151.00999999999993" y="761.2200000000001" as="targetPoint" />
          </mxGeometry>
        </mxCell>
        <mxCell id="BXh9d_WbOHaoUhnF2Wcy-132" style="edgeStyle=orthogonalEdgeStyle;rounded=0;orthogonalLoop=1;jettySize=auto;html=1;exitX=0.75;exitY=0;exitDx=0;exitDy=0;endArrow=oval;endFill=0;" edge="1" parent="1">
          <mxGeometry relative="1" as="geometry">
            <mxPoint x="203.00999999999993" y="777.2300000000001" as="sourcePoint" />
            <mxPoint x="201.00999999999993" y="761.2300000000001" as="targetPoint" />
          </mxGeometry>
        </mxCell>
        <mxCell id="BXh9d_WbOHaoUhnF2Wcy-133" value="" style="endArrow=none;html=1;rounded=0;" edge="1" parent="1">
          <mxGeometry width="50" height="50" relative="1" as="geometry">
            <mxPoint x="97.80000000000001" y="825.48" as="sourcePoint" />
            <mxPoint x="267.58000000000004" y="825.48" as="targetPoint" />
          </mxGeometry>
        </mxCell>
        <mxCell id="BXh9d_WbOHaoUhnF2Wcy-134" value="" style="endArrow=none;html=1;rounded=0;entryX=0.5;entryY=0;entryDx=0;entryDy=0;" edge="1" parent="1">
          <mxGeometry width="50" height="50" relative="1" as="geometry">
            <mxPoint x="183.25999999999993" y="825.4000000000001" as="sourcePoint" />
            <mxPoint x="183.25999999999993" y="845.4000000000001" as="targetPoint" />
          </mxGeometry>
        </mxCell>
        <mxCell id="BXh9d_WbOHaoUhnF2Wcy-135" value="" style="endArrow=none;html=1;rounded=0;entryX=0.5;entryY=0;entryDx=0;entryDy=0;" edge="1" parent="1">
          <mxGeometry width="50" height="50" relative="1" as="geometry">
            <mxPoint x="266.90999999999997" y="825.4800000000001" as="sourcePoint" />
            <mxPoint x="266.90999999999997" y="845.4800000000001" as="targetPoint" />
          </mxGeometry>
        </mxCell>
        <mxCell id="BXh9d_WbOHaoUhnF2Wcy-136" value="" style="endArrow=none;html=1;rounded=0;" edge="1" parent="1">
          <mxGeometry width="50" height="50" relative="1" as="geometry">
            <mxPoint x="141.45999999999998" y="895.9800000000001" as="sourcePoint" />
            <mxPoint x="141.45999999999998" y="805.9800000000001" as="targetPoint" />
          </mxGeometry>
        </mxCell>
        <mxCell id="BXh9d_WbOHaoUhnF2Wcy-137" value="" style="endArrow=none;html=1;rounded=0;exitX=0.5;exitY=1;exitDx=0;exitDy=0;" edge="1" source="BXh9d_WbOHaoUhnF2Wcy-195" parent="1">
          <mxGeometry width="50" height="50" relative="1" as="geometry">
            <mxPoint x="-105.71181884132085" y="964.4054863813233" as="sourcePoint" />
            <mxPoint x="141.7" y="983.9800000000002" as="targetPoint" />
          </mxGeometry>
        </mxCell>
        <mxCell id="BXh9d_WbOHaoUhnF2Wcy-138" value="&lt;span style=&quot;font-size: 8px;&quot;&gt;(1,N)&lt;/span&gt;" style="text;html=1;align=center;verticalAlign=middle;whiteSpace=wrap;rounded=1;strokeColor=none;glass=0;" vertex="1" parent="1">
          <mxGeometry x="133.26" y="876.88" width="50" height="15.277237354085603" as="geometry" />
        </mxCell>
        <mxCell id="BXh9d_WbOHaoUhnF2Wcy-139" value="&lt;font style=&quot;font-size: 9px;&quot;&gt;Nome&lt;/font&gt;" style="text;html=1;align=center;verticalAlign=middle;whiteSpace=wrap;rounded=0;" vertex="1" parent="1">
          <mxGeometry x="139.82" y="954.351011673152" width="40" height="17.314202334630348" as="geometry" />
        </mxCell>
        <mxCell id="BXh9d_WbOHaoUhnF2Wcy-140" value="&lt;font style=&quot;font-size: 9px;&quot;&gt;Provenienza&lt;/font&gt;" style="text;html=1;align=center;verticalAlign=middle;whiteSpace=wrap;rounded=0;" vertex="1" parent="1">
          <mxGeometry x="84.82" y="954.351011673152" width="40" height="17.314202334630348" as="geometry" />
        </mxCell>
        <mxCell id="BXh9d_WbOHaoUhnF2Wcy-141" value="&lt;font style=&quot;font-size: 9px;&quot;&gt;Codice&lt;/font&gt;" style="text;html=1;align=center;verticalAlign=middle;whiteSpace=wrap;rounded=0;" vertex="1" parent="1">
          <mxGeometry x="27.699999999999996" y="985.9800000000002" width="40" height="8" as="geometry" />
        </mxCell>
        <mxCell id="BXh9d_WbOHaoUhnF2Wcy-142" value="&lt;font style=&quot;font-size: 9px;&quot;&gt;Datazione&lt;/font&gt;" style="text;html=1;align=center;verticalAlign=middle;whiteSpace=wrap;rounded=0;" vertex="1" parent="1">
          <mxGeometry x="212.7" y="979.9800000000002" width="40" height="17.314202334630348" as="geometry" />
        </mxCell>
        <mxCell id="BXh9d_WbOHaoUhnF2Wcy-143" value="&lt;p style=&quot;line-height: 77%;&quot;&gt;&lt;font style=&quot;font-size: 9px;&quot;&gt;Significato Storico&lt;/font&gt;&lt;/p&gt;" style="text;html=1;align=center;verticalAlign=middle;whiteSpace=wrap;rounded=0;spacing=2;spacingTop=0;" vertex="1" parent="1">
          <mxGeometry x="80.19999999999999" y="1040.9796108949417" width="55" height="17.314202334630348" as="geometry" />
        </mxCell>
        <mxCell id="BXh9d_WbOHaoUhnF2Wcy-144" style="edgeStyle=orthogonalEdgeStyle;rounded=0;orthogonalLoop=1;jettySize=auto;html=1;exitX=0.75;exitY=0;exitDx=0;exitDy=0;entryX=0.614;entryY=1.108;entryDx=0;entryDy=0;entryPerimeter=0;endArrow=oval;endFill=0;" edge="1" source="BXh9d_WbOHaoUhnF2Wcy-202" target="BXh9d_WbOHaoUhnF2Wcy-139" parent="1">
          <mxGeometry relative="1" as="geometry" />
        </mxCell>
        <mxCell id="BXh9d_WbOHaoUhnF2Wcy-145" style="edgeStyle=orthogonalEdgeStyle;rounded=0;orthogonalLoop=1;jettySize=auto;html=1;exitX=0.25;exitY=0;exitDx=0;exitDy=0;entryX=0.842;entryY=1.009;entryDx=0;entryDy=0;entryPerimeter=0;endArrow=oval;endFill=0;" edge="1" source="BXh9d_WbOHaoUhnF2Wcy-202" target="BXh9d_WbOHaoUhnF2Wcy-140" parent="1">
          <mxGeometry relative="1" as="geometry" />
        </mxCell>
        <mxCell id="BXh9d_WbOHaoUhnF2Wcy-146" style="edgeStyle=orthogonalEdgeStyle;rounded=0;orthogonalLoop=1;jettySize=auto;html=1;exitX=0.75;exitY=1;exitDx=0;exitDy=0;entryX=0.578;entryY=0.124;entryDx=0;entryDy=0;entryPerimeter=0;endArrow=oval;endFill=0;" edge="1" source="BXh9d_WbOHaoUhnF2Wcy-202" parent="1">
          <mxGeometry relative="1" as="geometry">
            <mxPoint x="164.81999999999988" y="1036.4488482490274" as="targetPoint" />
          </mxGeometry>
        </mxCell>
        <mxCell id="BXh9d_WbOHaoUhnF2Wcy-147" value="&lt;span style=&quot;font-size: 8px;&quot;&gt;(1,1)&lt;/span&gt;" style="text;html=1;align=center;verticalAlign=middle;whiteSpace=wrap;rounded=1;strokeColor=none;glass=0;" vertex="1" parent="1">
          <mxGeometry x="136.25999999999993" y="935.8413618677044" width="50" height="15.277237354085603" as="geometry" />
        </mxCell>
        <mxCell id="BXh9d_WbOHaoUhnF2Wcy-148" style="edgeStyle=orthogonalEdgeStyle;rounded=0;orthogonalLoop=1;jettySize=auto;html=1;endArrow=oval;endFill=1;" edge="1" parent="1">
          <mxGeometry relative="1" as="geometry">
            <mxPoint x="89.32" y="992.0500000000002" as="sourcePoint" />
            <mxPoint x="67.32" y="991.8000000000002" as="targetPoint" />
            <Array as="points">
              <mxPoint x="89.32" y="992.0500000000002" />
              <mxPoint x="90.32" y="992.0500000000002" />
            </Array>
          </mxGeometry>
        </mxCell>
        <mxCell id="BXh9d_WbOHaoUhnF2Wcy-149" value="&lt;font style=&quot;font-size: 9px;&quot;&gt;Rarità&lt;/font&gt;" style="text;html=1;align=center;verticalAlign=middle;whiteSpace=wrap;rounded=0;" vertex="1" parent="1">
          <mxGeometry x="145.2" y="1034.8818871595333" width="40" height="17.314202334630348" as="geometry" />
        </mxCell>
        <mxCell id="BXh9d_WbOHaoUhnF2Wcy-150" style="edgeStyle=orthogonalEdgeStyle;rounded=0;orthogonalLoop=1;jettySize=auto;html=1;exitX=0.75;exitY=1;exitDx=0;exitDy=0;entryX=0.578;entryY=0.124;entryDx=0;entryDy=0;entryPerimeter=0;endArrow=oval;endFill=0;" edge="1" parent="1">
          <mxGeometry relative="1" as="geometry">
            <mxPoint x="107.58999999999997" y="1025.64" as="sourcePoint" />
            <mxPoint x="107.70999999999987" y="1036.1088482490275" as="targetPoint" />
          </mxGeometry>
        </mxCell>
        <mxCell id="BXh9d_WbOHaoUhnF2Wcy-151" value="" style="curved=1;endArrow=oval;html=1;rounded=0;endFill=1;" edge="1" parent="1">
          <mxGeometry width="50" height="50" relative="1" as="geometry">
            <mxPoint x="132.42000000000002" y="542.63" as="sourcePoint" />
            <mxPoint x="204.41999999999996" y="514.63" as="targetPoint" />
            <Array as="points">
              <mxPoint x="133.42000000000002" y="515.63" />
            </Array>
          </mxGeometry>
        </mxCell>
        <mxCell id="BXh9d_WbOHaoUhnF2Wcy-152" style="edgeStyle=orthogonalEdgeStyle;rounded=0;orthogonalLoop=1;jettySize=auto;html=1;exitX=1;exitY=0.5;exitDx=0;exitDy=0;endArrow=oval;endFill=0;" edge="1" parent="1">
          <mxGeometry relative="1" as="geometry">
            <mxPoint x="223.25999999999993" y="798.62" as="sourcePoint" />
            <mxPoint x="246.38000000000008" y="798.62" as="targetPoint" />
          </mxGeometry>
        </mxCell>
        <mxCell id="BXh9d_WbOHaoUhnF2Wcy-153" value="&lt;font style=&quot;font-size: 8px;&quot;&gt;Numero&lt;/font&gt;&lt;div style=&quot;line-height: 60%;&quot;&gt;&lt;font style=&quot;font-size: 8px;&quot;&gt;Oggetti&lt;/font&gt;&lt;/div&gt;" style="text;html=1;align=center;verticalAlign=middle;whiteSpace=wrap;rounded=1;strokeColor=none;" vertex="1" parent="1">
          <mxGeometry x="227.01000000000005" y="772.6600000000001" width="40" height="18" as="geometry" />
        </mxCell>
        <mxCell id="BXh9d_WbOHaoUhnF2Wcy-156" value="&lt;span style=&quot;font-size: 8px;&quot;&gt;(0,N)&lt;/span&gt;" style="text;html=1;align=center;verticalAlign=middle;whiteSpace=wrap;rounded=1;strokeColor=none;glass=0;" vertex="1" parent="1">
          <mxGeometry x="-242.04999999999993" y="970.49" width="22.5" height="6.75" as="geometry" />
        </mxCell>
        <mxCell id="BXh9d_WbOHaoUhnF2Wcy-157" value="&lt;font style=&quot;font-size: 8px;&quot;&gt;(0,N)&lt;/font&gt;" style="text;html=1;align=center;verticalAlign=middle;whiteSpace=wrap;rounded=1;strokeColor=none;glass=0;" vertex="1" parent="1">
          <mxGeometry x="-7.369999999999889" y="990.5399999999997" width="22.5" height="6.75" as="geometry" />
        </mxCell>
        <mxCell id="BXh9d_WbOHaoUhnF2Wcy-158" value="&lt;span style=&quot;font-size: 8px;&quot;&gt;(1,1)&lt;/span&gt;" style="text;html=1;align=center;verticalAlign=middle;whiteSpace=wrap;rounded=1;strokeColor=none;glass=0;" vertex="1" parent="1">
          <mxGeometry x="-219.54999999999984" y="987.2299999999999" width="22.5" height="6.75" as="geometry" />
        </mxCell>
        <mxCell id="BXh9d_WbOHaoUhnF2Wcy-159" value="&lt;span style=&quot;font-size: 8px;&quot;&gt;(1,1)&lt;/span&gt;" style="text;html=1;align=center;verticalAlign=middle;whiteSpace=wrap;rounded=1;strokeColor=none;glass=0;" vertex="1" parent="1">
          <mxGeometry x="-84.86999999999985" y="990.5400000000001" width="22.5" height="6.75" as="geometry" />
        </mxCell>
        <mxCell id="BXh9d_WbOHaoUhnF2Wcy-160" style="edgeStyle=orthogonalEdgeStyle;rounded=0;orthogonalLoop=1;jettySize=auto;html=1;exitX=0.25;exitY=0;exitDx=0;exitDy=0;entryX=0.842;entryY=1.009;entryDx=0;entryDy=0;entryPerimeter=0;endArrow=oval;endFill=1;" edge="1" parent="1">
          <mxGeometry relative="1" as="geometry">
            <mxPoint x="-175.16999999999982" y="992.13" as="sourcePoint" />
            <mxPoint x="-172.16999999999982" y="979.13" as="targetPoint" />
          </mxGeometry>
        </mxCell>
        <mxCell id="BXh9d_WbOHaoUhnF2Wcy-161" value="&lt;font style=&quot;font-size: 9px;&quot;&gt;Codice&lt;/font&gt;" style="text;html=1;align=center;verticalAlign=middle;whiteSpace=wrap;rounded=0;" vertex="1" parent="1">
          <mxGeometry x="-192" y="959.9210116731516" width="40" height="17.314202334630348" as="geometry" />
        </mxCell>
        <mxCell id="BXh9d_WbOHaoUhnF2Wcy-162" style="edgeStyle=orthogonalEdgeStyle;rounded=0;orthogonalLoop=1;jettySize=auto;html=1;exitX=0.5;exitY=1;exitDx=0;exitDy=0;" edge="1" parent="1">
          <mxGeometry relative="1" as="geometry">
            <mxPoint x="21.019999999999982" y="340.8" as="sourcePoint" />
            <mxPoint x="21.019999999999982" y="340.8" as="targetPoint" />
          </mxGeometry>
        </mxCell>
        <mxCell id="BXh9d_WbOHaoUhnF2Wcy-163" value="&lt;font style=&quot;font-size: 8px;&quot;&gt;Ora&lt;/font&gt;" style="text;html=1;align=center;verticalAlign=middle;whiteSpace=wrap;rounded=1;strokeColor=none;glass=0;" vertex="1" parent="1">
          <mxGeometry x="-589.58" y="288.56" width="50" height="15" as="geometry" />
        </mxCell>
        <mxCell id="BXh9d_WbOHaoUhnF2Wcy-165" value="&lt;font style=&quot;font-size: 8px;&quot;&gt;Data&lt;/font&gt;" style="text;html=1;align=center;verticalAlign=middle;whiteSpace=wrap;rounded=1;strokeColor=none;glass=0;" vertex="1" parent="1">
          <mxGeometry x="-589.58" y="276" width="50" height="15" as="geometry" />
        </mxCell>
        <mxCell id="BXh9d_WbOHaoUhnF2Wcy-166" style="edgeStyle=orthogonalEdgeStyle;rounded=0;orthogonalLoop=1;jettySize=auto;html=1;exitX=0;exitY=0;exitDx=0;exitDy=0;endArrow=oval;endFill=0;" edge="1" parent="1">
          <mxGeometry relative="1" as="geometry">
            <mxPoint x="-551.58" y="285.35999999999996" as="targetPoint" />
            <mxPoint x="-532.1999999999999" y="285.35999999999996" as="sourcePoint" />
            <Array as="points" />
          </mxGeometry>
        </mxCell>
        <mxCell id="BXh9d_WbOHaoUhnF2Wcy-167" style="edgeStyle=orthogonalEdgeStyle;rounded=0;orthogonalLoop=1;jettySize=auto;html=1;endArrow=oval;endFill=0;" edge="1" parent="1">
          <mxGeometry relative="1" as="geometry">
            <mxPoint x="-551.58" y="298.47999999999996" as="targetPoint" />
            <mxPoint x="-531.58" y="298.47999999999996" as="sourcePoint" />
            <Array as="points" />
          </mxGeometry>
        </mxCell>
        <mxCell id="BXh9d_WbOHaoUhnF2Wcy-168" value="" style="endArrow=none;html=1;rounded=0;entryX=0.551;entryY=1.003;entryDx=0;entryDy=0;entryPerimeter=0;" edge="1" parent="1">
          <mxGeometry width="50" height="50" relative="1" as="geometry">
            <mxPoint x="-522.08" y="324.09999999999997" as="sourcePoint" />
            <mxPoint x="-522.08" y="301.04" as="targetPoint" />
          </mxGeometry>
        </mxCell>
        <mxCell id="BXh9d_WbOHaoUhnF2Wcy-169" value="&lt;p style=&quot;line-height: 110%;&quot;&gt;&lt;font style=&quot;font-size: 7px;&quot;&gt;DataVisita&lt;/font&gt;&lt;/p&gt;" style="ellipse;whiteSpace=wrap;html=1;" vertex="1" parent="1">
          <mxGeometry x="-539.58" y="280.97999999999996" width="36.12" height="20" as="geometry" />
        </mxCell>
        <mxCell id="BXh9d_WbOHaoUhnF2Wcy-171" value="&lt;font style=&quot;font-size: 8px;&quot;&gt;Durata&lt;/font&gt;" style="text;html=1;align=center;verticalAlign=middle;whiteSpace=wrap;rounded=1;strokeColor=none;glass=0;" vertex="1" parent="1">
          <mxGeometry x="-541.5" y="365.98" width="50" height="17" as="geometry" />
        </mxCell>
        <mxCell id="BXh9d_WbOHaoUhnF2Wcy-172" style="edgeStyle=orthogonalEdgeStyle;rounded=0;orthogonalLoop=1;jettySize=auto;html=1;exitX=1;exitY=0.5;exitDx=0;exitDy=0;endArrow=oval;endFill=0;" edge="1" parent="1">
          <mxGeometry relative="1" as="geometry">
            <mxPoint x="-517.62" y="369.02000000000004" as="targetPoint" />
            <mxPoint x="-518.0299999999999" y="348.59999999999997" as="sourcePoint" />
            <Array as="points">
              <mxPoint x="-518.0299999999999" y="368.59999999999997" />
            </Array>
          </mxGeometry>
        </mxCell>
        <mxCell id="BXh9d_WbOHaoUhnF2Wcy-173" value="&lt;span style=&quot;font-size: 8px;&quot;&gt;(1,N)&lt;/span&gt;" style="text;html=1;align=center;verticalAlign=middle;whiteSpace=wrap;rounded=1;strokeColor=none;glass=0;" vertex="1" parent="1">
          <mxGeometry x="-669.9999999999997" y="357.9800000000001" width="22.5" height="6.75" as="geometry" />
        </mxCell>
        <mxCell id="BXh9d_WbOHaoUhnF2Wcy-174" value="&lt;font style=&quot;font-size: 8px;&quot;&gt;(0,N)&lt;/font&gt;" style="text;html=1;align=center;verticalAlign=middle;whiteSpace=wrap;rounded=1;strokeColor=none;glass=0;" vertex="1" parent="1">
          <mxGeometry x="-469.95000000000005" y="437.7499999999999" width="22.5" height="6.75" as="geometry" />
        </mxCell>
        <mxCell id="BXh9d_WbOHaoUhnF2Wcy-175" value="Sostiene" style="shape=rhombus;perimeter=rhombusPerimeter;whiteSpace=wrap;html=1;align=center;" vertex="1" parent="1">
          <mxGeometry x="-706.5599999999998" y="315.62" width="73.56" height="42.36" as="geometry" />
        </mxCell>
        <mxCell id="BXh9d_WbOHaoUhnF2Wcy-176" value="" style="endArrow=none;html=1;rounded=0;entryX=1;entryY=0.5;entryDx=0;entryDy=0;" edge="1" target="BXh9d_WbOHaoUhnF2Wcy-175" parent="1">
          <mxGeometry width="50" height="50" relative="1" as="geometry">
            <mxPoint x="-175.5" y="337" as="sourcePoint" />
            <mxPoint x="-565.5299999999999" y="337.1800000000001" as="targetPoint" />
          </mxGeometry>
        </mxCell>
        <mxCell id="BXh9d_WbOHaoUhnF2Wcy-177" value="&lt;span style=&quot;font-size: 8px;&quot;&gt;(1,1)&lt;/span&gt;" style="text;html=1;align=center;verticalAlign=middle;whiteSpace=wrap;rounded=1;strokeColor=none;glass=0;" vertex="1" parent="1">
          <mxGeometry x="-638.28" y="323.6600000000001" width="22.5" height="6.75" as="geometry" />
        </mxCell>
        <mxCell id="BXh9d_WbOHaoUhnF2Wcy-178" value="&lt;span style=&quot;font-size: 8px;&quot;&gt;(1,N)&lt;/span&gt;" style="text;html=1;align=center;verticalAlign=middle;whiteSpace=wrap;rounded=1;strokeColor=none;glass=0;" vertex="1" parent="1">
          <mxGeometry x="-498.83" y="417.63000000000005" width="22.5" height="6.75" as="geometry" />
        </mxCell>
        <mxCell id="BXh9d_WbOHaoUhnF2Wcy-179" style="edgeStyle=orthogonalEdgeStyle;rounded=0;orthogonalLoop=1;jettySize=auto;html=1;exitX=0.25;exitY=0;exitDx=0;exitDy=0;entryX=0.842;entryY=1.009;entryDx=0;entryDy=0;entryPerimeter=0;endArrow=oval;endFill=1;" edge="1" parent="1">
          <mxGeometry relative="1" as="geometry">
            <mxPoint x="-491.4500000000001" y="323.66" as="sourcePoint" />
            <mxPoint x="-488.4500000000001" y="310.66" as="targetPoint" />
          </mxGeometry>
        </mxCell>
        <mxCell id="BXh9d_WbOHaoUhnF2Wcy-180" value="&lt;font style=&quot;font-size: 9px;&quot;&gt;Codice&lt;/font&gt;" style="text;html=1;align=center;verticalAlign=middle;whiteSpace=wrap;rounded=0;" vertex="1" parent="1">
          <mxGeometry x="-509.95" y="291.0010116731517" width="40" height="17.314202334630348" as="geometry" />
        </mxCell>
        <mxCell id="BXh9d_WbOHaoUhnF2Wcy-181" style="edgeStyle=orthogonalEdgeStyle;rounded=0;orthogonalLoop=1;jettySize=auto;html=1;exitX=0.5;exitY=1;exitDx=0;exitDy=0;" edge="1" parent="1">
          <mxGeometry relative="1" as="geometry">
            <mxPoint x="226.62" y="333.99000000000007" as="sourcePoint" />
            <mxPoint x="226.62" y="333.99000000000007" as="targetPoint" />
          </mxGeometry>
        </mxCell>
        <mxCell id="BXh9d_WbOHaoUhnF2Wcy-182" style="edgeStyle=orthogonalEdgeStyle;rounded=0;orthogonalLoop=1;jettySize=auto;html=1;exitX=0.5;exitY=1;exitDx=0;exitDy=0;" edge="1" parent="1">
          <mxGeometry relative="1" as="geometry">
            <mxPoint x="244.62" y="333.0800000000001" as="sourcePoint" />
            <mxPoint x="244.62" y="333.0800000000001" as="targetPoint" />
          </mxGeometry>
        </mxCell>
        <mxCell id="BXh9d_WbOHaoUhnF2Wcy-183" value="&lt;span style=&quot;font-size: 8px;&quot;&gt;(0,N)&lt;/span&gt;" style="text;html=1;align=center;verticalAlign=middle;whiteSpace=wrap;rounded=1;strokeColor=none;glass=0;" vertex="1" parent="1">
          <mxGeometry x="-47.55000000000001" y="317.2400000000001" width="22.5" height="6.75" as="geometry" />
        </mxCell>
        <mxCell id="BXh9d_WbOHaoUhnF2Wcy-184" value="&lt;font style=&quot;font-size: 8px;&quot;&gt;(0,N)&lt;/font&gt;" style="text;html=1;align=center;verticalAlign=middle;whiteSpace=wrap;rounded=1;strokeColor=none;glass=0;" vertex="1" parent="1">
          <mxGeometry x="197.42" y="351.5599999999999" width="22.5" height="6.75" as="geometry" />
        </mxCell>
        <mxCell id="BXh9d_WbOHaoUhnF2Wcy-185" value="V-P" style="shape=rhombus;perimeter=rhombusPerimeter;whiteSpace=wrap;html=1;align=center;" vertex="1" parent="1">
          <mxGeometry x="-29.550000000000004" y="309.20000000000005" width="73.56" height="42.36" as="geometry" />
        </mxCell>
        <mxCell id="BXh9d_WbOHaoUhnF2Wcy-186" value="" style="endArrow=none;html=1;rounded=0;entryX=1;entryY=0.5;entryDx=0;entryDy=0;exitX=0;exitY=0.5;exitDx=0;exitDy=0;" edge="1" source="BXh9d_WbOHaoUhnF2Wcy-188" target="BXh9d_WbOHaoUhnF2Wcy-185" parent="1">
          <mxGeometry width="50" height="50" relative="1" as="geometry">
            <mxPoint x="221.19000000000005" y="364.0900000000001" as="sourcePoint" />
            <mxPoint x="-47.00000000000001" y="364.0900000000001" as="targetPoint" />
          </mxGeometry>
        </mxCell>
        <mxCell id="BXh9d_WbOHaoUhnF2Wcy-187" value="" style="endArrow=none;html=1;rounded=0;entryX=1;entryY=0.5;entryDx=0;entryDy=0;exitX=0;exitY=0.5;exitDx=0;exitDy=0;" edge="1" source="BXh9d_WbOHaoUhnF2Wcy-350" target="BXh9d_WbOHaoUhnF2Wcy-188" parent="1">
          <mxGeometry width="50" height="50" relative="1" as="geometry">
            <mxPoint x="221.19000000000005" y="364.0900000000001" as="sourcePoint" />
            <mxPoint x="37" y="363.8300000000001" as="targetPoint" />
          </mxGeometry>
        </mxCell>
        <mxCell id="BXh9d_WbOHaoUhnF2Wcy-188" value="Partecipazione" style="whiteSpace=wrap;html=1;align=center;" vertex="1" parent="1">
          <mxGeometry x="62.50999999999989" y="317.24000000000007" width="90.38" height="26.28" as="geometry" />
        </mxCell>
        <mxCell id="BXh9d_WbOHaoUhnF2Wcy-189" value="&lt;span style=&quot;font-size: 8px;&quot;&gt;(1,1)&lt;/span&gt;" style="text;html=1;align=center;verticalAlign=middle;whiteSpace=wrap;rounded=1;strokeColor=none;glass=0;" vertex="1" parent="1">
          <mxGeometry x="36.45" y="317.2400000000001" width="22.5" height="6.75" as="geometry" />
        </mxCell>
        <mxCell id="BXh9d_WbOHaoUhnF2Wcy-190" value="&lt;span style=&quot;font-size: 8px;&quot;&gt;(1,1)&lt;/span&gt;" style="text;html=1;align=center;verticalAlign=middle;whiteSpace=wrap;rounded=1;strokeColor=none;glass=0;" vertex="1" parent="1">
          <mxGeometry x="167.01000000000008" y="316.91000000000014" width="22.5" height="6.75" as="geometry" />
        </mxCell>
        <mxCell id="BXh9d_WbOHaoUhnF2Wcy-191" style="edgeStyle=orthogonalEdgeStyle;rounded=0;orthogonalLoop=1;jettySize=auto;html=1;exitX=0.25;exitY=0;exitDx=0;exitDy=0;entryX=0.842;entryY=1.009;entryDx=0;entryDy=0;entryPerimeter=0;endArrow=oval;endFill=1;" edge="1" parent="1">
          <mxGeometry relative="1" as="geometry">
            <mxPoint x="103.29999999999993" y="317.2200000000001" as="sourcePoint" />
            <mxPoint x="106.29999999999993" y="304.2200000000001" as="targetPoint" />
          </mxGeometry>
        </mxCell>
        <mxCell id="BXh9d_WbOHaoUhnF2Wcy-192" value="&lt;font style=&quot;font-size: 9px;&quot;&gt;Codice&lt;/font&gt;" style="text;html=1;align=center;verticalAlign=middle;whiteSpace=wrap;rounded=0;" vertex="1" parent="1">
          <mxGeometry x="87.70000000000005" y="286.2410116731517" width="40" height="17.314202334630348" as="geometry" />
        </mxCell>
        <mxCell id="BXh9d_WbOHaoUhnF2Wcy-193" value="&lt;font style=&quot;font-size: 8px;&quot;&gt;Argomento&lt;/font&gt;" style="text;html=1;align=center;verticalAlign=middle;whiteSpace=wrap;rounded=1;strokeColor=none;" vertex="1" parent="1">
          <mxGeometry x="-453" y="1022" width="40" height="19" as="geometry" />
        </mxCell>
        <mxCell id="BXh9d_WbOHaoUhnF2Wcy-194" value="" style="shape=singleArrow;direction=north;whiteSpace=wrap;html=1;arrowWidth=0.3808905843098993;arrowSize=0.6576580700573631;" vertex="1" parent="1">
          <mxGeometry x="166.04000000000002" y="805.9800000000001" width="30" height="19.5" as="geometry" />
        </mxCell>
        <mxCell id="BXh9d_WbOHaoUhnF2Wcy-195" value="Contenimento" style="shape=rhombus;perimeter=rhombusPerimeter;whiteSpace=wrap;html=1;align=center;" vertex="1" parent="1">
          <mxGeometry x="98.32999999999998" y="894.7300000000001" width="86.56" height="49.63" as="geometry" />
        </mxCell>
        <mxCell id="BXh9d_WbOHaoUhnF2Wcy-196" value="Geroglifici" style="whiteSpace=wrap;html=1;align=center;" vertex="1" parent="1">
          <mxGeometry x="145.2" y="845.9100000000001" width="71.68" height="18.5" as="geometry" />
        </mxCell>
        <mxCell id="BXh9d_WbOHaoUhnF2Wcy-197" value="Storie Nascoste" style="whiteSpace=wrap;html=1;align=center;" vertex="1" parent="1">
          <mxGeometry x="220.7" y="845.9100000000001" width="87" height="18.07" as="geometry" />
        </mxCell>
        <mxCell id="BXh9d_WbOHaoUhnF2Wcy-198" style="edgeStyle=orthogonalEdgeStyle;rounded=0;orthogonalLoop=1;jettySize=auto;html=1;endArrow=oval;endFill=0;" edge="1" parent="1">
          <mxGeometry relative="1" as="geometry">
            <mxPoint x="189.82" y="989.8500000000001" as="sourcePoint" />
            <mxPoint x="207.7" y="989.9800000000002" as="targetPoint" />
            <Array as="points">
              <mxPoint x="197.7" y="989.9800000000002" />
            </Array>
          </mxGeometry>
        </mxCell>
        <mxCell id="BXh9d_WbOHaoUhnF2Wcy-199" value="" style="endArrow=none;html=1;rounded=0;" edge="1" parent="1">
          <mxGeometry width="50" height="50" relative="1" as="geometry">
            <mxPoint x="37.69999999999999" y="1144.4183829195208" as="sourcePoint" />
            <mxPoint x="37.69999999999999" y="1013.9800000000002" as="targetPoint" />
          </mxGeometry>
        </mxCell>
        <mxCell id="BXh9d_WbOHaoUhnF2Wcy-200" value="" style="endArrow=none;html=1;rounded=0;" edge="1" parent="1">
          <mxGeometry width="50" height="50" relative="1" as="geometry">
            <mxPoint x="240.61999999999998" y="1143.4800000000002" as="sourcePoint" />
            <mxPoint x="240.61999999999998" y="1014.2700000000002" as="targetPoint" />
          </mxGeometry>
        </mxCell>
        <mxCell id="BXh9d_WbOHaoUhnF2Wcy-201" value="" style="endArrow=none;html=1;rounded=0;" edge="1" parent="1">
          <mxGeometry width="50" height="50" relative="1" as="geometry">
            <mxPoint x="37.69999999999999" y="1013.9800000000002" as="sourcePoint" />
            <mxPoint x="241.20000000000002" y="1013.9800000000002" as="targetPoint" />
          </mxGeometry>
        </mxCell>
        <mxCell id="BXh9d_WbOHaoUhnF2Wcy-202" value="Oggetto" style="whiteSpace=wrap;html=1;align=center;" vertex="1" parent="1">
          <mxGeometry x="89.82" y="984.905486381323" width="100" height="40.73929961089494" as="geometry" />
        </mxCell>
        <mxCell id="BXh9d_WbOHaoUhnF2Wcy-203" value="Correlazione" style="shape=rhombus;perimeter=rhombusPerimeter;whiteSpace=wrap;html=1;align=center;" vertex="1" parent="1">
          <mxGeometry x="99.64000000000004" y="1117.5177626459144" width="80" height="50.92412451361867" as="geometry" />
        </mxCell>
        <mxCell id="BXh9d_WbOHaoUhnF2Wcy-204" value="&lt;font style=&quot;font-size: 8px;&quot;&gt;(0,N)&lt;/font&gt;" style="text;html=1;align=center;verticalAlign=middle;whiteSpace=wrap;rounded=1;strokeColor=none;glass=0;" vertex="1" parent="1">
          <mxGeometry x="71.76000000000005" y="1121.3500000000001" width="50" height="19" as="geometry" />
        </mxCell>
        <mxCell id="BXh9d_WbOHaoUhnF2Wcy-205" value="&lt;font style=&quot;font-size: 8px;&quot;&gt;(0,N)&lt;/font&gt;" style="text;html=1;align=center;verticalAlign=middle;whiteSpace=wrap;rounded=1;strokeColor=none;glass=0;" vertex="1" parent="1">
          <mxGeometry x="155.75999999999993" y="1117.9" width="50" height="24.24" as="geometry" />
        </mxCell>
        <mxCell id="BXh9d_WbOHaoUhnF2Wcy-206" value="&lt;font style=&quot;font-size: 9px;&quot;&gt;Descrizione&lt;/font&gt;" style="text;html=1;align=center;verticalAlign=middle;whiteSpace=wrap;rounded=0;" vertex="1" parent="1">
          <mxGeometry x="82.52000000000004" y="1157.4300000000003" width="40" height="17.314202334630348" as="geometry" />
        </mxCell>
        <mxCell id="BXh9d_WbOHaoUhnF2Wcy-207" style="edgeStyle=orthogonalEdgeStyle;rounded=0;orthogonalLoop=1;jettySize=auto;html=1;exitX=1;exitY=0;exitDx=0;exitDy=0;endArrow=oval;endFill=0;" edge="1" parent="1">
          <mxGeometry relative="1" as="geometry">
            <mxPoint x="99.52000000000004" y="1143.1200000000001" as="sourcePoint" />
            <mxPoint x="99.52000000000004" y="1158.1200000000001" as="targetPoint" />
          </mxGeometry>
        </mxCell>
        <mxCell id="BXh9d_WbOHaoUhnF2Wcy-208" value="" style="endArrow=none;html=1;rounded=0;entryX=0;entryY=0.5;entryDx=0;entryDy=0;" edge="1" target="BXh9d_WbOHaoUhnF2Wcy-203" parent="1">
          <mxGeometry width="50" height="50" relative="1" as="geometry">
            <mxPoint x="37.69999999999999" y="1143.9800000000002" as="sourcePoint" />
            <mxPoint x="82.38" y="1130.3500000000001" as="targetPoint" />
          </mxGeometry>
        </mxCell>
        <mxCell id="BXh9d_WbOHaoUhnF2Wcy-209" value="" style="endArrow=none;html=1;rounded=0;exitX=1;exitY=0.5;exitDx=0;exitDy=0;" edge="1" source="BXh9d_WbOHaoUhnF2Wcy-203" parent="1">
          <mxGeometry width="50" height="50" relative="1" as="geometry">
            <mxPoint x="172.37999999999994" y="1120.3500000000001" as="sourcePoint" />
            <mxPoint x="240.70000000000002" y="1142.9800000000002" as="targetPoint" />
          </mxGeometry>
        </mxCell>
        <mxCell id="BXh9d_WbOHaoUhnF2Wcy-210" style="edgeStyle=orthogonalEdgeStyle;rounded=0;orthogonalLoop=1;jettySize=auto;html=1;exitX=0.5;exitY=1;exitDx=0;exitDy=0;" edge="1" parent="1">
          <mxGeometry relative="1" as="geometry">
            <mxPoint x="-819.0999999999999" y="996.9" as="sourcePoint" />
            <mxPoint x="-819.0999999999999" y="996.9" as="targetPoint" />
          </mxGeometry>
        </mxCell>
        <mxCell id="BXh9d_WbOHaoUhnF2Wcy-211" style="edgeStyle=orthogonalEdgeStyle;rounded=0;orthogonalLoop=1;jettySize=auto;html=1;exitX=0.5;exitY=1;exitDx=0;exitDy=0;" edge="1" parent="1">
          <mxGeometry relative="1" as="geometry">
            <mxPoint x="-613.5" y="990.0899999999999" as="sourcePoint" />
            <mxPoint x="-613.5" y="990.0899999999999" as="targetPoint" />
          </mxGeometry>
        </mxCell>
        <mxCell id="BXh9d_WbOHaoUhnF2Wcy-212" style="edgeStyle=orthogonalEdgeStyle;rounded=0;orthogonalLoop=1;jettySize=auto;html=1;exitX=0.5;exitY=1;exitDx=0;exitDy=0;" edge="1" parent="1">
          <mxGeometry relative="1" as="geometry">
            <mxPoint x="-595.5" y="989.18" as="sourcePoint" />
            <mxPoint x="-595.5" y="989.18" as="targetPoint" />
          </mxGeometry>
        </mxCell>
        <mxCell id="BXh9d_WbOHaoUhnF2Wcy-213" value="&lt;font style=&quot;font-size: 8px;&quot;&gt;(0,N)&lt;/font&gt;" style="text;html=1;align=center;verticalAlign=middle;whiteSpace=wrap;rounded=1;strokeColor=none;glass=0;" vertex="1" parent="1">
          <mxGeometry x="-608.23" y="1000.8799999999999" width="22.5" height="6.75" as="geometry" />
        </mxCell>
        <mxCell id="BXh9d_WbOHaoUhnF2Wcy-214" value="A-I" style="shape=rhombus;perimeter=rhombusPerimeter;whiteSpace=wrap;html=1;align=center;" vertex="1" parent="1">
          <mxGeometry x="-778.53" y="928.1299999999999" width="73.56" height="42.36" as="geometry" />
        </mxCell>
        <mxCell id="BXh9d_WbOHaoUhnF2Wcy-215" value="" style="endArrow=none;html=1;rounded=0;entryX=1;entryY=0.5;entryDx=0;entryDy=0;" edge="1" target="BXh9d_WbOHaoUhnF2Wcy-322" parent="1">
          <mxGeometry width="50" height="50" relative="1" as="geometry">
            <mxPoint x="-550" y="1021" as="sourcePoint" />
            <mxPoint x="-803.1199999999999" y="1019.93" as="targetPoint" />
          </mxGeometry>
        </mxCell>
        <mxCell id="BXh9d_WbOHaoUhnF2Wcy-216" value="I-C" style="shape=rhombus;perimeter=rhombusPerimeter;whiteSpace=wrap;html=1;align=center;" vertex="1" parent="1">
          <mxGeometry x="-664.5" y="1000.8799999999999" width="70" height="39.81" as="geometry" />
        </mxCell>
        <mxCell id="BXh9d_WbOHaoUhnF2Wcy-217" value="&lt;span style=&quot;font-size: 8px;&quot;&gt;(1,1)&lt;/span&gt;" style="text;html=1;align=center;verticalAlign=middle;whiteSpace=wrap;rounded=1;strokeColor=none;glass=0;" vertex="1" parent="1">
          <mxGeometry x="-739.8299999999999" y="970.49" width="22.5" height="6.75" as="geometry" />
        </mxCell>
        <mxCell id="BXh9d_WbOHaoUhnF2Wcy-218" value="&lt;span style=&quot;font-size: 8px;&quot;&gt;(1,1)&lt;/span&gt;" style="text;html=1;align=center;verticalAlign=middle;whiteSpace=wrap;rounded=1;strokeColor=none;glass=0;" vertex="1" parent="1">
          <mxGeometry x="-673.9599999999998" y="1000.91" width="22.5" height="6.75" as="geometry" />
        </mxCell>
        <mxCell id="BXh9d_WbOHaoUhnF2Wcy-219" style="edgeStyle=orthogonalEdgeStyle;rounded=0;orthogonalLoop=1;jettySize=auto;html=1;exitX=0.5;exitY=0;exitDx=0;exitDy=0;entryX=0.842;entryY=1.009;entryDx=0;entryDy=0;entryPerimeter=0;endArrow=oval;endFill=1;" edge="1" source="BXh9d_WbOHaoUhnF2Wcy-321" parent="1">
          <mxGeometry relative="1" as="geometry">
            <mxPoint x="-703" y="1007.62" as="sourcePoint" />
            <mxPoint x="-700" y="994.62" as="targetPoint" />
          </mxGeometry>
        </mxCell>
        <mxCell id="BXh9d_WbOHaoUhnF2Wcy-220" value="&lt;font style=&quot;font-size: 8px;&quot;&gt;(0,N)&lt;/font&gt;" style="text;html=1;align=center;verticalAlign=middle;whiteSpace=wrap;rounded=1;strokeColor=none;glass=0;" vertex="1" parent="1">
          <mxGeometry x="-741.3599999999999" y="917.1700000000001" width="22.5" height="8.79" as="geometry" />
        </mxCell>
        <mxCell id="BXh9d_WbOHaoUhnF2Wcy-221" value="&lt;font style=&quot;font-size: 8px;&quot;&gt;Ora&lt;/font&gt;" style="text;html=1;align=center;verticalAlign=middle;whiteSpace=wrap;rounded=1;strokeColor=none;glass=0;" vertex="1" parent="1">
          <mxGeometry x="-384.31" y="570.16" width="30" height="11.5" as="geometry" />
        </mxCell>
        <mxCell id="BXh9d_WbOHaoUhnF2Wcy-222" style="edgeStyle=orthogonalEdgeStyle;rounded=0;orthogonalLoop=1;jettySize=auto;html=1;exitX=1;exitY=1;exitDx=0;exitDy=0;endArrow=oval;endFill=0;" edge="1" parent="1">
          <mxGeometry relative="1" as="geometry">
            <mxPoint x="-403.48362007710926" y="577.2332645518719" as="sourcePoint" />
            <mxPoint x="-382.31" y="577.0899999999999" as="targetPoint" />
          </mxGeometry>
        </mxCell>
        <mxCell id="BXh9d_WbOHaoUhnF2Wcy-223" value="&lt;font style=&quot;font-size: 8px;&quot;&gt;Data&lt;/font&gt;" style="text;html=1;align=center;verticalAlign=middle;whiteSpace=wrap;rounded=1;strokeColor=none;glass=0;" vertex="1" parent="1">
          <mxGeometry x="-384.31" y="561.29" width="30" height="6.5" as="geometry" />
        </mxCell>
        <mxCell id="BXh9d_WbOHaoUhnF2Wcy-224" style="edgeStyle=orthogonalEdgeStyle;rounded=0;orthogonalLoop=1;jettySize=auto;html=1;exitX=1;exitY=0;exitDx=0;exitDy=0;entryX=0.086;entryY=0.404;entryDx=0;entryDy=0;entryPerimeter=0;endArrow=oval;endFill=0;" edge="1" source="BXh9d_WbOHaoUhnF2Wcy-279" target="BXh9d_WbOHaoUhnF2Wcy-223" parent="1">
          <mxGeometry relative="1" as="geometry" />
        </mxCell>
        <mxCell id="BXh9d_WbOHaoUhnF2Wcy-225" value="" style="shape=singleArrow;direction=north;whiteSpace=wrap;html=1;arrowWidth=0.3808905843098993;arrowSize=0.6576580700573631;" vertex="1" parent="1">
          <mxGeometry x="-427.8400000000001" y="856.19" width="30" height="18.5" as="geometry" />
        </mxCell>
        <mxCell id="BXh9d_WbOHaoUhnF2Wcy-226" style="edgeStyle=orthogonalEdgeStyle;rounded=0;orthogonalLoop=1;jettySize=auto;html=1;exitX=0.5;exitY=1;exitDx=0;exitDy=0;" edge="1" parent="1">
          <mxGeometry relative="1" as="geometry">
            <mxPoint x="-526.9899999999999" y="807.8299999999999" as="sourcePoint" />
            <mxPoint x="-526.9899999999999" y="807.8299999999999" as="targetPoint" />
          </mxGeometry>
        </mxCell>
        <mxCell id="BXh9d_WbOHaoUhnF2Wcy-227" value="&lt;font style=&quot;font-size: 8px;&quot;&gt;(1,N)&lt;/font&gt;" style="text;html=1;align=center;verticalAlign=middle;whiteSpace=wrap;rounded=1;strokeColor=none;glass=0;" vertex="1" parent="1">
          <mxGeometry x="-594.17" y="823.5799999999999" width="22.5" height="8.79" as="geometry" />
        </mxCell>
        <mxCell id="BXh9d_WbOHaoUhnF2Wcy-228" style="edgeStyle=orthogonalEdgeStyle;rounded=0;orthogonalLoop=1;jettySize=auto;html=1;exitX=0.5;exitY=1;exitDx=0;exitDy=0;" edge="1" parent="1">
          <mxGeometry relative="1" as="geometry">
            <mxPoint x="-600.55" y="863.5999999999999" as="sourcePoint" />
            <mxPoint x="-600.55" y="863.5999999999999" as="targetPoint" />
          </mxGeometry>
        </mxCell>
        <mxCell id="BXh9d_WbOHaoUhnF2Wcy-229" value="&lt;font style=&quot;font-size: 8px;&quot;&gt;(1,1)&lt;/font&gt;" style="text;html=1;align=center;verticalAlign=middle;whiteSpace=wrap;rounded=1;strokeColor=none;glass=0;" vertex="1" parent="1">
          <mxGeometry x="-660.78" y="887.92" width="22.5" height="8.79" as="geometry" />
        </mxCell>
        <mxCell id="BXh9d_WbOHaoUhnF2Wcy-230" style="edgeStyle=orthogonalEdgeStyle;rounded=0;orthogonalLoop=1;jettySize=auto;html=1;exitX=0.5;exitY=1;exitDx=0;exitDy=0;" edge="1" parent="1">
          <mxGeometry relative="1" as="geometry">
            <mxPoint x="-265.97" y="814.78" as="sourcePoint" />
            <mxPoint x="-265.97" y="814.78" as="targetPoint" />
          </mxGeometry>
        </mxCell>
        <mxCell id="BXh9d_WbOHaoUhnF2Wcy-231" value="&lt;font style=&quot;font-size: 8px;&quot;&gt;(0,N)&lt;/font&gt;" style="text;html=1;align=center;verticalAlign=middle;whiteSpace=wrap;rounded=1;strokeColor=none;glass=0;" vertex="1" parent="1">
          <mxGeometry x="-276.11" y="824.5999999999999" width="22.5" height="8.79" as="geometry" />
        </mxCell>
        <mxCell id="BXh9d_WbOHaoUhnF2Wcy-232" value="" style="endArrow=none;html=1;rounded=0;exitX=0.5;exitY=0;exitDx=0;exitDy=0;" edge="1" source="BXh9d_WbOHaoUhnF2Wcy-266" parent="1">
          <mxGeometry width="50" height="50" relative="1" as="geometry">
            <mxPoint x="-537.77" y="663.01" as="sourcePoint" />
            <mxPoint x="-482.32" y="657.9100000000001" as="targetPoint" />
          </mxGeometry>
        </mxCell>
        <mxCell id="BXh9d_WbOHaoUhnF2Wcy-233" value="" style="endArrow=none;html=1;rounded=0;" edge="1" parent="1">
          <mxGeometry width="50" height="50" relative="1" as="geometry">
            <mxPoint x="-482.82" y="657.9100000000001" as="sourcePoint" />
            <mxPoint x="-356.32" y="658.01" as="targetPoint" />
          </mxGeometry>
        </mxCell>
        <mxCell id="BXh9d_WbOHaoUhnF2Wcy-234" value="" style="shape=singleArrow;direction=north;whiteSpace=wrap;html=1;arrowWidth=0.3808905843098993;arrowSize=0.6576580700573631;" vertex="1" parent="1">
          <mxGeometry x="-434.30999999999995" y="640.3900000000001" width="30.92" height="17.37" as="geometry" />
        </mxCell>
        <mxCell id="BXh9d_WbOHaoUhnF2Wcy-235" value="" style="endArrow=none;html=1;rounded=0;entryX=0.476;entryY=-0.004;entryDx=0;entryDy=0;entryPerimeter=0;" edge="1" target="BXh9d_WbOHaoUhnF2Wcy-370" parent="1">
          <mxGeometry width="50" height="50" relative="1" as="geometry">
            <mxPoint x="-356.32" y="657.9100000000001" as="sourcePoint" />
            <mxPoint x="-277.77000000000004" y="613.01" as="targetPoint" />
          </mxGeometry>
        </mxCell>
        <mxCell id="BXh9d_WbOHaoUhnF2Wcy-236" style="edgeStyle=orthogonalEdgeStyle;rounded=0;orthogonalLoop=1;jettySize=auto;html=1;exitX=0.5;exitY=1;exitDx=0;exitDy=0;" edge="1" parent="1">
          <mxGeometry relative="1" as="geometry">
            <mxPoint x="-532.5399999999998" y="590.9000000000001" as="sourcePoint" />
            <mxPoint x="-532.5399999999998" y="590.9000000000001" as="targetPoint" />
          </mxGeometry>
        </mxCell>
        <mxCell id="BXh9d_WbOHaoUhnF2Wcy-237" value="&lt;font style=&quot;font-size: 8px;&quot;&gt;(1,N)&lt;/font&gt;" style="text;html=1;align=center;verticalAlign=middle;whiteSpace=wrap;rounded=1;strokeColor=none;glass=0;" vertex="1" parent="1">
          <mxGeometry x="-597.4899999999999" y="610.6200000000001" width="22.5" height="8.79" as="geometry" />
        </mxCell>
        <mxCell id="BXh9d_WbOHaoUhnF2Wcy-238" style="edgeStyle=orthogonalEdgeStyle;rounded=0;orthogonalLoop=1;jettySize=auto;html=1;exitX=0.5;exitY=1;exitDx=0;exitDy=0;" edge="1" parent="1">
          <mxGeometry relative="1" as="geometry">
            <mxPoint x="-606.0999999999999" y="646.6700000000001" as="sourcePoint" />
            <mxPoint x="-606.0999999999999" y="646.6700000000001" as="targetPoint" />
          </mxGeometry>
        </mxCell>
        <mxCell id="BXh9d_WbOHaoUhnF2Wcy-239" value="&lt;font style=&quot;font-size: 8px;&quot;&gt;(1,1)&lt;/font&gt;" style="text;html=1;align=center;verticalAlign=middle;whiteSpace=wrap;rounded=1;strokeColor=none;glass=0;" vertex="1" parent="1">
          <mxGeometry x="-660.78" y="671.1400000000001" width="22.5" height="8.79" as="geometry" />
        </mxCell>
        <mxCell id="BXh9d_WbOHaoUhnF2Wcy-240" style="edgeStyle=orthogonalEdgeStyle;rounded=0;orthogonalLoop=1;jettySize=auto;html=1;exitX=0.5;exitY=1;exitDx=0;exitDy=0;" edge="1" parent="1">
          <mxGeometry relative="1" as="geometry">
            <mxPoint x="-271.52" y="597.8500000000001" as="sourcePoint" />
            <mxPoint x="-271.52" y="597.8500000000001" as="targetPoint" />
          </mxGeometry>
        </mxCell>
        <mxCell id="BXh9d_WbOHaoUhnF2Wcy-241" value="&lt;font style=&quot;font-size: 8px;&quot;&gt;(0,N)&lt;/font&gt;" style="text;html=1;align=center;verticalAlign=middle;whiteSpace=wrap;rounded=1;strokeColor=none;glass=0;" vertex="1" parent="1">
          <mxGeometry x="-285.15000000000003" y="646.2600000000001" width="22.5" height="8.79" as="geometry" />
        </mxCell>
        <mxCell id="BXh9d_WbOHaoUhnF2Wcy-242" value="I-A" style="shape=rhombus;perimeter=rhombusPerimeter;whiteSpace=wrap;html=1;align=center;" vertex="1" parent="1">
          <mxGeometry x="-776.15" y="1081.09" width="70" height="39.81" as="geometry" />
        </mxCell>
        <mxCell id="BXh9d_WbOHaoUhnF2Wcy-243" value="&lt;span style=&quot;font-size: 8px;&quot;&gt;(1,1)&lt;/span&gt;" style="text;html=1;align=center;verticalAlign=middle;whiteSpace=wrap;rounded=1;strokeColor=none;glass=0;" vertex="1" parent="1">
          <mxGeometry x="-741.3599999999999" y="1070.9300000000003" width="22.5" height="6.75" as="geometry" />
        </mxCell>
        <mxCell id="BXh9d_WbOHaoUhnF2Wcy-244" value="&lt;font style=&quot;font-size: 8px;&quot;&gt;(0,N)&lt;/font&gt;" style="text;html=1;align=center;verticalAlign=middle;whiteSpace=wrap;rounded=1;strokeColor=none;glass=0;" vertex="1" parent="1">
          <mxGeometry x="-739.83" y="1116.53" width="22.5" height="8.79" as="geometry" />
        </mxCell>
        <mxCell id="BXh9d_WbOHaoUhnF2Wcy-245" value="&lt;span style=&quot;font-size: 8px;&quot;&gt;(1,1)&lt;/span&gt;" style="text;html=1;align=center;verticalAlign=middle;whiteSpace=wrap;rounded=1;strokeColor=none;glass=0;" vertex="1" parent="1">
          <mxGeometry x="-512.5" y="825.6200000000001" width="22.5" height="6.75" as="geometry" />
        </mxCell>
        <mxCell id="BXh9d_WbOHaoUhnF2Wcy-246" value="&lt;span style=&quot;font-size: 8px;&quot;&gt;(1,1)&lt;/span&gt;" style="text;html=1;align=center;verticalAlign=middle;whiteSpace=wrap;rounded=1;strokeColor=none;glass=0;" vertex="1" parent="1">
          <mxGeometry x="-355.27000000000004" y="824.6000000000001" width="22.5" height="6.75" as="geometry" />
        </mxCell>
        <mxCell id="BXh9d_WbOHaoUhnF2Wcy-247" value="&lt;span style=&quot;font-size: 8px;&quot;&gt;(1,1)&lt;/span&gt;" style="text;html=1;align=center;verticalAlign=middle;whiteSpace=wrap;rounded=1;strokeColor=none;glass=0;" vertex="1" parent="1">
          <mxGeometry x="-576.6999999999999" y="888.9400000000002" width="22.5" height="6.75" as="geometry" />
        </mxCell>
        <mxCell id="BXh9d_WbOHaoUhnF2Wcy-248" style="edgeStyle=orthogonalEdgeStyle;rounded=0;orthogonalLoop=1;jettySize=auto;html=1;exitX=0;exitY=0.25;exitDx=0;exitDy=0;endArrow=oval;endFill=0;" edge="1" parent="1">
          <mxGeometry relative="1" as="geometry">
            <mxPoint x="-769.5999999999999" y="769.4000000000001" as="targetPoint" />
            <mxPoint x="-749.5999999999999" y="769.1700000000001" as="sourcePoint" />
            <Array as="points">
              <mxPoint x="-759.5999999999999" y="769.4000000000001" />
            </Array>
          </mxGeometry>
        </mxCell>
        <mxCell id="BXh9d_WbOHaoUhnF2Wcy-249" value="&lt;div&gt;Utilizzo&lt;/div&gt;&lt;div&gt;corrente&lt;/div&gt;" style="whiteSpace=wrap;html=1;align=center;" vertex="1" parent="1">
          <mxGeometry x="-516.77" y="887.9200000000001" width="75.33" height="29.25" as="geometry" />
        </mxCell>
        <mxCell id="BXh9d_WbOHaoUhnF2Wcy-250" value="" style="endArrow=none;html=1;rounded=0;exitX=0.5;exitY=0;exitDx=0;exitDy=0;" edge="1" source="BXh9d_WbOHaoUhnF2Wcy-249" parent="1">
          <mxGeometry width="50" height="50" relative="1" as="geometry">
            <mxPoint x="-534.4499999999999" y="879.79" as="sourcePoint" />
            <mxPoint x="-479" y="874.69" as="targetPoint" />
          </mxGeometry>
        </mxCell>
        <mxCell id="BXh9d_WbOHaoUhnF2Wcy-251" value="" style="endArrow=none;html=1;rounded=0;" edge="1" parent="1">
          <mxGeometry width="50" height="50" relative="1" as="geometry">
            <mxPoint x="-479.5" y="874.69" as="sourcePoint" />
            <mxPoint x="-353" y="874.79" as="targetPoint" />
          </mxGeometry>
        </mxCell>
        <mxCell id="BXh9d_WbOHaoUhnF2Wcy-252" value="" style="endArrow=none;html=1;rounded=0;entryX=0.476;entryY=-0.004;entryDx=0;entryDy=0;entryPerimeter=0;" edge="1" target="BXh9d_WbOHaoUhnF2Wcy-374" parent="1">
          <mxGeometry width="50" height="50" relative="1" as="geometry">
            <mxPoint x="-353" y="874.69" as="sourcePoint" />
            <mxPoint x="-274.45000000000005" y="829.79" as="targetPoint" />
          </mxGeometry>
        </mxCell>
        <mxCell id="BXh9d_WbOHaoUhnF2Wcy-253" value="" style="endArrow=none;html=1;rounded=0;entryX=0;entryY=0.5;entryDx=0;entryDy=0;" edge="1" target="BXh9d_WbOHaoUhnF2Wcy-249" parent="1">
          <mxGeometry width="50" height="50" relative="1" as="geometry">
            <mxPoint x="-712" y="903" as="sourcePoint" />
            <mxPoint x="-521.6800000000001" y="902.31" as="targetPoint" />
          </mxGeometry>
        </mxCell>
        <mxCell id="BXh9d_WbOHaoUhnF2Wcy-254" value="A-Ucor" style="shape=rhombus;perimeter=rhombusPerimeter;whiteSpace=wrap;html=1;align=center;" vertex="1" parent="1">
          <mxGeometry x="-645.86" y="881.37" width="73.56" height="42.36" as="geometry" />
        </mxCell>
        <mxCell id="BXh9d_WbOHaoUhnF2Wcy-255" value="" style="endArrow=none;html=1;rounded=0;" edge="1" source="BXh9d_WbOHaoUhnF2Wcy-298" parent="1">
          <mxGeometry width="50" height="50" relative="1" as="geometry">
            <mxPoint x="-698.5" y="840" as="sourcePoint" />
            <mxPoint x="-50.5" y="840" as="targetPoint" />
          </mxGeometry>
        </mxCell>
        <mxCell id="BXh9d_WbOHaoUhnF2Wcy-256" value="Accessorio" style="whiteSpace=wrap;html=1;align=center;" vertex="1" parent="1">
          <mxGeometry x="-84.87" y="753.3" width="67.5" height="20" as="geometry" />
        </mxCell>
        <mxCell id="BXh9d_WbOHaoUhnF2Wcy-257" value="&lt;font style=&quot;font-size: 9px;&quot;&gt;Scopo&lt;/font&gt;" style="text;html=1;align=center;verticalAlign=middle;whiteSpace=wrap;rounded=0;" vertex="1" parent="1">
          <mxGeometry x="-7.3700000000000045" y="753" width="40" height="17" as="geometry" />
        </mxCell>
        <mxCell id="BXh9d_WbOHaoUhnF2Wcy-258" style="edgeStyle=orthogonalEdgeStyle;rounded=0;orthogonalLoop=1;jettySize=auto;html=1;exitX=1.001;exitY=0.609;exitDx=0;exitDy=0;endArrow=oval;endFill=0;exitPerimeter=0;" edge="1" parent="1">
          <mxGeometry relative="1" as="geometry">
            <mxPoint x="-17.37250000000001" y="763.0999999999998" as="sourcePoint" />
            <mxPoint x="-4.940000000000005" y="762.85" as="targetPoint" />
          </mxGeometry>
        </mxCell>
        <mxCell id="BXh9d_WbOHaoUhnF2Wcy-259" value="" style="endArrow=none;html=1;rounded=0;" edge="1" parent="1">
          <mxGeometry width="50" height="50" relative="1" as="geometry">
            <mxPoint x="-712.1" y="903.5" as="sourcePoint" />
            <mxPoint x="-712" y="625.5" as="targetPoint" />
          </mxGeometry>
        </mxCell>
        <mxCell id="BXh9d_WbOHaoUhnF2Wcy-260" style="edgeStyle=orthogonalEdgeStyle;rounded=0;orthogonalLoop=1;jettySize=auto;html=1;exitX=1.001;exitY=0.609;exitDx=0;exitDy=0;endArrow=oval;endFill=0;exitPerimeter=0;" edge="1" parent="1">
          <mxGeometry relative="1" as="geometry">
            <mxPoint x="-205.67999999999998" y="770.0000000000002" as="sourcePoint" />
            <mxPoint x="-217.68" y="770.0100000000002" as="targetPoint" />
          </mxGeometry>
        </mxCell>
        <mxCell id="BXh9d_WbOHaoUhnF2Wcy-261" value="" style="endArrow=none;html=1;rounded=0;entryX=1;entryY=0.5;entryDx=0;entryDy=0;" edge="1" target="BXh9d_WbOHaoUhnF2Wcy-263" parent="1">
          <mxGeometry width="50" height="50" relative="1" as="geometry">
            <mxPoint x="-712.1" y="625.84" as="sourcePoint" />
            <mxPoint x="-152.81936677631577" y="625.85" as="targetPoint" />
          </mxGeometry>
        </mxCell>
        <mxCell id="BXh9d_WbOHaoUhnF2Wcy-262" value="A-V" style="shape=rhombus;perimeter=rhombusPerimeter;whiteSpace=wrap;html=1;align=center;" vertex="1" parent="1">
          <mxGeometry x="-579.7099999999999" y="604.92" width="73.56" height="42.36" as="geometry" />
        </mxCell>
        <mxCell id="BXh9d_WbOHaoUhnF2Wcy-263" value="V-A" style="shape=rhombus;perimeter=rhombusPerimeter;whiteSpace=wrap;html=1;align=center;" vertex="1" parent="1">
          <mxGeometry x="-320.9200000000001" y="604.9200000000001" width="73.56" height="42.36" as="geometry" />
        </mxCell>
        <mxCell id="BXh9d_WbOHaoUhnF2Wcy-264" value="Abito" style="whiteSpace=wrap;html=1;align=center;" vertex="1" parent="1">
          <mxGeometry x="-207" y="753.3" width="57.5" height="20" as="geometry" />
        </mxCell>
        <mxCell id="BXh9d_WbOHaoUhnF2Wcy-265" value="" style="endArrow=none;html=1;rounded=0;entryX=0;entryY=0.5;entryDx=0;entryDy=0;" edge="1" parent="1">
          <mxGeometry width="50" height="50" relative="1" as="geometry">
            <mxPoint x="-698" y="685" as="sourcePoint" />
            <mxPoint x="-473.68" y="686.39" as="targetPoint" />
          </mxGeometry>
        </mxCell>
        <mxCell id="BXh9d_WbOHaoUhnF2Wcy-266" value="Vestizione&lt;div&gt;corrente&lt;/div&gt;" style="whiteSpace=wrap;html=1;align=center;" vertex="1" parent="1">
          <mxGeometry x="-520.09" y="671.1400000000001" width="75.33" height="29.25" as="geometry" />
        </mxCell>
        <mxCell id="BXh9d_WbOHaoUhnF2Wcy-267" value="A-Vcor" style="shape=rhombus;perimeter=rhombusPerimeter;whiteSpace=wrap;html=1;align=center;" vertex="1" parent="1">
          <mxGeometry x="-641.6" y="664.5899999999999" width="73.56" height="42.36" as="geometry" />
        </mxCell>
        <mxCell id="BXh9d_WbOHaoUhnF2Wcy-268" value="" style="endArrow=none;html=1;rounded=0;" edge="1" parent="1">
          <mxGeometry width="50" height="50" relative="1" as="geometry">
            <mxPoint x="-698" y="840" as="sourcePoint" />
            <mxPoint x="-698" y="684.5" as="targetPoint" />
          </mxGeometry>
        </mxCell>
        <mxCell id="BXh9d_WbOHaoUhnF2Wcy-269" value="Avatar" style="whiteSpace=wrap;html=1;align=center;" vertex="1" parent="1">
          <mxGeometry x="-749.5999999999999" y="747.98" width="60" height="30" as="geometry" />
        </mxCell>
        <mxCell id="BXh9d_WbOHaoUhnF2Wcy-270" value="&lt;span style=&quot;font-size: 8px;&quot;&gt;(1,1)&lt;/span&gt;" style="text;html=1;align=center;verticalAlign=middle;whiteSpace=wrap;rounded=1;strokeColor=none;glass=0;" vertex="1" parent="1">
          <mxGeometry x="-336.81" y="611.6400000000002" width="22.5" height="6.75" as="geometry" />
        </mxCell>
        <mxCell id="BXh9d_WbOHaoUhnF2Wcy-271" value="&lt;span style=&quot;font-size: 8px;&quot;&gt;(1,1)&lt;/span&gt;" style="text;html=1;align=center;verticalAlign=middle;whiteSpace=wrap;rounded=1;strokeColor=none;glass=0;" vertex="1" parent="1">
          <mxGeometry x="-515.82" y="609.3500000000001" width="22.5" height="6.75" as="geometry" />
        </mxCell>
        <mxCell id="BXh9d_WbOHaoUhnF2Wcy-272" value="&lt;span style=&quot;font-size: 8px;&quot;&gt;(1,1)&lt;/span&gt;" style="text;html=1;align=center;verticalAlign=middle;whiteSpace=wrap;rounded=1;strokeColor=none;glass=0;" vertex="1" parent="1">
          <mxGeometry x="-574.99" y="671.1400000000001" width="22.5" height="6.75" as="geometry" />
        </mxCell>
        <mxCell id="BXh9d_WbOHaoUhnF2Wcy-273" value="&lt;font style=&quot;font-size: 8px;&quot;&gt;Ora&lt;/font&gt;" style="text;html=1;align=center;verticalAlign=middle;whiteSpace=wrap;rounded=1;strokeColor=none;glass=0;" vertex="1" parent="1">
          <mxGeometry x="-384.31" y="789.4300000000001" width="30" height="11.5" as="geometry" />
        </mxCell>
        <mxCell id="BXh9d_WbOHaoUhnF2Wcy-274" style="edgeStyle=orthogonalEdgeStyle;rounded=0;orthogonalLoop=1;jettySize=auto;html=1;exitX=1;exitY=1;exitDx=0;exitDy=0;endArrow=oval;endFill=0;" edge="1" parent="1">
          <mxGeometry relative="1" as="geometry">
            <mxPoint x="-403.48362007710926" y="796.503264551872" as="sourcePoint" />
            <mxPoint x="-382.31" y="796.36" as="targetPoint" />
          </mxGeometry>
        </mxCell>
        <mxCell id="BXh9d_WbOHaoUhnF2Wcy-275" value="&lt;font style=&quot;font-size: 8px;&quot;&gt;Data&lt;/font&gt;" style="text;html=1;align=center;verticalAlign=middle;whiteSpace=wrap;rounded=1;strokeColor=none;glass=0;" vertex="1" parent="1">
          <mxGeometry x="-384.31" y="780.5600000000001" width="30" height="6.5" as="geometry" />
        </mxCell>
        <mxCell id="BXh9d_WbOHaoUhnF2Wcy-276" style="edgeStyle=orthogonalEdgeStyle;rounded=0;orthogonalLoop=1;jettySize=auto;html=1;exitX=1;exitY=0;exitDx=0;exitDy=0;entryX=0.086;entryY=0.404;entryDx=0;entryDy=0;entryPerimeter=0;endArrow=oval;endFill=0;" edge="1" source="BXh9d_WbOHaoUhnF2Wcy-281" target="BXh9d_WbOHaoUhnF2Wcy-275" parent="1">
          <mxGeometry relative="1" as="geometry" />
        </mxCell>
        <mxCell id="BXh9d_WbOHaoUhnF2Wcy-277" value="" style="endArrow=none;html=1;rounded=0;exitX=0.5;exitY=1;exitDx=0;exitDy=0;" edge="1" parent="1">
          <mxGeometry width="50" height="50" relative="1" as="geometry">
            <mxPoint x="-416.62" y="789.4300000000001" as="sourcePoint" />
            <mxPoint x="-416.62" y="829.4300000000001" as="targetPoint" />
          </mxGeometry>
        </mxCell>
        <mxCell id="BXh9d_WbOHaoUhnF2Wcy-278" value="" style="endArrow=none;html=1;rounded=0;exitX=0.5;exitY=1;exitDx=0;exitDy=0;" edge="1" parent="1">
          <mxGeometry width="50" height="50" relative="1" as="geometry">
            <mxPoint x="-417.28000000000003" y="574.3100000000001" as="sourcePoint" />
            <mxPoint x="-417.28000000000003" y="614.3100000000001" as="targetPoint" />
          </mxGeometry>
        </mxCell>
        <mxCell id="BXh9d_WbOHaoUhnF2Wcy-279" value="&lt;p style=&quot;line-height: 110%;&quot;&gt;&lt;font style=&quot;font-size: 7px;&quot;&gt;DataInizio&lt;/font&gt;&lt;/p&gt;" style="ellipse;whiteSpace=wrap;html=1;" vertex="1" parent="1">
          <mxGeometry x="-434.31" y="561.66" width="36.12" height="20" as="geometry" />
        </mxCell>
        <mxCell id="BXh9d_WbOHaoUhnF2Wcy-280" value="Vestizione" style="whiteSpace=wrap;html=1;align=center;" vertex="1" parent="1">
          <mxGeometry x="-467.14" y="610.6200000000001" width="96.58" height="28.87" as="geometry" />
        </mxCell>
        <mxCell id="BXh9d_WbOHaoUhnF2Wcy-281" value="&lt;p style=&quot;line-height: 110%;&quot;&gt;&lt;font style=&quot;font-size: 7px;&quot;&gt;DataInizio&lt;/font&gt;&lt;/p&gt;" style="ellipse;whiteSpace=wrap;html=1;" vertex="1" parent="1">
          <mxGeometry x="-434.31" y="780.9300000000001" width="36.12" height="20" as="geometry" />
        </mxCell>
        <mxCell id="BXh9d_WbOHaoUhnF2Wcy-282" value="" style="curved=1;endArrow=oval;html=1;rounded=0;endFill=1;" edge="1" parent="1">
          <mxGeometry width="50" height="50" relative="1" as="geometry">
            <mxPoint x="-400.59" y="595.76" as="sourcePoint" />
            <mxPoint x="-486.7099999999999" y="639.66" as="targetPoint" />
            <Array as="points">
              <mxPoint x="-484.4599999999999" y="596.66" />
              <mxPoint x="-486.7099999999999" y="646.26" />
            </Array>
          </mxGeometry>
        </mxCell>
        <mxCell id="BXh9d_WbOHaoUhnF2Wcy-283" value="" style="curved=1;endArrow=oval;html=1;rounded=0;endFill=1;" edge="1" parent="1">
          <mxGeometry width="50" height="50" relative="1" as="geometry">
            <mxPoint x="-394.64" y="807.6800000000001" as="sourcePoint" />
            <mxPoint x="-480.75999999999993" y="851.5799999999999" as="targetPoint" />
            <Array as="points">
              <mxPoint x="-478.50999999999993" y="808.5799999999999" />
              <mxPoint x="-480.75999999999993" y="858.1800000000001" />
            </Array>
          </mxGeometry>
        </mxCell>
        <mxCell id="BXh9d_WbOHaoUhnF2Wcy-284" value="" style="endArrow=none;html=1;rounded=0;entryX=0.5;entryY=1;entryDx=0;entryDy=0;" edge="1" parent="1">
          <mxGeometry width="50" height="50" relative="1" as="geometry">
            <mxPoint x="-51" y="840" as="sourcePoint" />
            <mxPoint x="-50.8899999999999" y="772.8599999999999" as="targetPoint" />
          </mxGeometry>
        </mxCell>
        <mxCell id="BXh9d_WbOHaoUhnF2Wcy-285" value="" style="endArrow=none;html=1;rounded=0;entryX=0;entryY=0.25;entryDx=0;entryDy=0;" edge="1" target="BXh9d_WbOHaoUhnF2Wcy-264" parent="1">
          <mxGeometry width="50" height="50" relative="1" as="geometry">
            <mxPoint x="-284" y="758" as="sourcePoint" />
            <mxPoint x="-300" y="740" as="targetPoint" />
          </mxGeometry>
        </mxCell>
        <mxCell id="BXh9d_WbOHaoUhnF2Wcy-286" value="" style="endArrow=none;html=1;rounded=0;entryX=0.5;entryY=1;entryDx=0;entryDy=0;" edge="1" target="BXh9d_WbOHaoUhnF2Wcy-263" parent="1">
          <mxGeometry width="50" height="50" relative="1" as="geometry">
            <mxPoint x="-284" y="758.5" as="sourcePoint" />
            <mxPoint x="-250" y="680" as="targetPoint" />
          </mxGeometry>
        </mxCell>
        <mxCell id="BXh9d_WbOHaoUhnF2Wcy-287" value="&lt;span style=&quot;font-size: 8px;&quot;&gt;(1,N)&lt;/span&gt;" style="text;html=1;align=center;verticalAlign=middle;whiteSpace=wrap;rounded=1;strokeColor=none;glass=0;" vertex="1" parent="1">
          <mxGeometry x="-115.62" y="586.5500000000001" width="22.5" height="6.75" as="geometry" />
        </mxCell>
        <mxCell id="BXh9d_WbOHaoUhnF2Wcy-288" style="edgeStyle=orthogonalEdgeStyle;rounded=0;orthogonalLoop=1;jettySize=auto;html=1;exitX=0.25;exitY=0;exitDx=0;exitDy=0;entryX=0.5;entryY=1;entryDx=0;entryDy=0;endArrow=oval;endFill=0;" edge="1" parent="1">
          <mxGeometry relative="1" as="geometry">
            <mxPoint x="-137.49999999999966" y="507.14" as="targetPoint" />
            <mxPoint x="-140.00000000000006" y="524.6399999999999" as="sourcePoint" />
          </mxGeometry>
        </mxCell>
        <mxCell id="BXh9d_WbOHaoUhnF2Wcy-289" style="edgeStyle=orthogonalEdgeStyle;rounded=0;orthogonalLoop=1;jettySize=auto;html=1;exitX=1;exitY=0;exitDx=0;exitDy=0;entryX=0.25;entryY=1;entryDx=0;entryDy=0;endArrow=oval;endFill=0;" edge="1" source="BXh9d_WbOHaoUhnF2Wcy-315" parent="1">
          <mxGeometry relative="1" as="geometry">
            <mxPoint x="-90.68999999999967" y="507.14" as="targetPoint" />
          </mxGeometry>
        </mxCell>
        <mxCell id="BXh9d_WbOHaoUhnF2Wcy-290" value="" style="curved=1;endArrow=oval;html=1;rounded=0;entryX=0.642;entryY=0.924;entryDx=0;entryDy=0;entryPerimeter=0;endFill=1;" edge="1" parent="1">
          <mxGeometry width="50" height="50" relative="1" as="geometry">
            <mxPoint x="-160" y="519.42" as="sourcePoint" />
            <mxPoint x="-55.05999999999984" y="507.14000000000004" as="targetPoint" />
            <Array as="points">
              <mxPoint x="-110" y="519.42" />
              <mxPoint x="-60.00000000000001" y="519.42" />
            </Array>
          </mxGeometry>
        </mxCell>
        <mxCell id="BXh9d_WbOHaoUhnF2Wcy-291" value="&lt;font style=&quot;font-size: 8px;&quot;&gt;(1,N)&lt;/font&gt;" style="text;html=1;align=center;verticalAlign=middle;whiteSpace=wrap;rounded=1;strokeColor=none;glass=0;" vertex="1" parent="1">
          <mxGeometry x="-158" y="561.29" width="50" height="15" as="geometry" />
        </mxCell>
        <mxCell id="BXh9d_WbOHaoUhnF2Wcy-292" style="edgeStyle=orthogonalEdgeStyle;rounded=0;orthogonalLoop=1;jettySize=auto;html=1;exitX=0.25;exitY=1;exitDx=0;exitDy=0;endArrow=oval;endFill=0;" edge="1" parent="1">
          <mxGeometry relative="1" as="geometry">
            <mxPoint x="-144" y="554" as="sourcePoint" />
            <mxPoint x="-146" y="580" as="targetPoint" />
          </mxGeometry>
        </mxCell>
        <mxCell id="BXh9d_WbOHaoUhnF2Wcy-293" value="" style="endArrow=none;html=1;rounded=0;entryX=0;entryY=0.5;entryDx=0;entryDy=0;exitX=1;exitY=0.5;exitDx=0;exitDy=0;" edge="1" source="BXh9d_WbOHaoUhnF2Wcy-314" target="BXh9d_WbOHaoUhnF2Wcy-74" parent="1">
          <mxGeometry width="50" height="50" relative="1" as="geometry">
            <mxPoint x="-30.359999999999985" y="535.83" as="sourcePoint" />
            <mxPoint x="15.139999999999958" y="535.8299999999999" as="targetPoint" />
          </mxGeometry>
        </mxCell>
        <mxCell id="BXh9d_WbOHaoUhnF2Wcy-294" value="" style="endArrow=none;html=1;rounded=0;exitX=1;exitY=0.25;exitDx=0;exitDy=0;" edge="1" source="BXh9d_WbOHaoUhnF2Wcy-53" parent="1">
          <mxGeometry width="50" height="50" relative="1" as="geometry">
            <mxPoint x="-670" y="510" as="sourcePoint" />
            <mxPoint x="-670" y="499" as="targetPoint" />
          </mxGeometry>
        </mxCell>
        <mxCell id="BXh9d_WbOHaoUhnF2Wcy-295" value="" style="endArrow=none;html=1;rounded=0;" edge="1" target="BXh9d_WbOHaoUhnF2Wcy-175" parent="1">
          <mxGeometry width="50" height="50" relative="1" as="geometry">
            <mxPoint x="-670" y="500" as="sourcePoint" />
            <mxPoint x="-670" y="360" as="targetPoint" />
          </mxGeometry>
        </mxCell>
        <mxCell id="BXh9d_WbOHaoUhnF2Wcy-296" value="" style="endArrow=none;html=1;rounded=0;" edge="1" parent="1">
          <mxGeometry width="50" height="50" relative="1" as="geometry">
            <mxPoint x="-243.3" y="1013.0853282752404" as="sourcePoint" />
            <mxPoint x="-243" y="347" as="targetPoint" />
          </mxGeometry>
        </mxCell>
        <mxCell id="BXh9d_WbOHaoUhnF2Wcy-297" value="" style="endArrow=none;html=1;rounded=0;" edge="1" target="BXh9d_WbOHaoUhnF2Wcy-298" parent="1">
          <mxGeometry width="50" height="50" relative="1" as="geometry">
            <mxPoint x="-698.5" y="840" as="sourcePoint" />
            <mxPoint x="-50.5" y="840" as="targetPoint" />
          </mxGeometry>
        </mxCell>
        <mxCell id="BXh9d_WbOHaoUhnF2Wcy-298" value="U-A" style="shape=rhombus;perimeter=rhombusPerimeter;whiteSpace=wrap;html=1;align=center;" vertex="1" parent="1">
          <mxGeometry x="-343.85000000000014" y="818.5600000000002" width="73.56" height="42.36" as="geometry" />
        </mxCell>
        <mxCell id="BXh9d_WbOHaoUhnF2Wcy-299" value="Utilizzo" style="whiteSpace=wrap;html=1;align=center;" vertex="1" parent="1">
          <mxGeometry x="-465.3400000000001" y="827.3199999999999" width="96.58" height="28.87" as="geometry" />
        </mxCell>
        <mxCell id="BXh9d_WbOHaoUhnF2Wcy-300" value="A-U" style="shape=rhombus;perimeter=rhombusPerimeter;whiteSpace=wrap;html=1;align=center;" vertex="1" parent="1">
          <mxGeometry x="-576.39" y="818.5600000000001" width="73.56" height="42.36" as="geometry" />
        </mxCell>
        <mxCell id="BXh9d_WbOHaoUhnF2Wcy-301" value="" style="endArrow=none;html=1;rounded=0;entryX=0;entryY=0.5;entryDx=0;entryDy=0;" edge="1" source="BXh9d_WbOHaoUhnF2Wcy-303" target="BXh9d_WbOHaoUhnF2Wcy-202" parent="1">
          <mxGeometry width="50" height="50" relative="1" as="geometry">
            <mxPoint x="-32.61" y="1052.95" as="sourcePoint" />
            <mxPoint x="17.39" y="1002.95" as="targetPoint" />
          </mxGeometry>
        </mxCell>
        <mxCell id="BXh9d_WbOHaoUhnF2Wcy-302" value="Interazione" style="whiteSpace=wrap;html=1;align=center;" vertex="1" parent="1">
          <mxGeometry x="-188.18999999999983" y="992.13" width="90.38" height="26.28" as="geometry" />
        </mxCell>
        <mxCell id="BXh9d_WbOHaoUhnF2Wcy-303" value="V-I" style="shape=rhombus;perimeter=rhombusPerimeter;whiteSpace=wrap;html=1;align=center;" vertex="1" parent="1">
          <mxGeometry x="-280.55999999999983" y="983.28" width="73.56" height="42.36" as="geometry" />
        </mxCell>
        <mxCell id="BXh9d_WbOHaoUhnF2Wcy-304" value="I-O" style="shape=rhombus;perimeter=rhombusPerimeter;whiteSpace=wrap;html=1;align=center;" vertex="1" parent="1">
          <mxGeometry x="-72.0499999999999" y="985.3699999999999" width="70" height="39.81" as="geometry" />
        </mxCell>
        <mxCell id="BXh9d_WbOHaoUhnF2Wcy-305" value="" style="endArrow=none;html=1;rounded=0;entryX=0.5;entryY=0;entryDx=0;entryDy=0;" edge="1" parent="1">
          <mxGeometry width="50" height="50" relative="1" as="geometry">
            <mxPoint x="98.32999999999993" y="825.4800000000001" as="sourcePoint" />
            <mxPoint x="98.32999999999993" y="845.4800000000001" as="targetPoint" />
          </mxGeometry>
        </mxCell>
        <mxCell id="BXh9d_WbOHaoUhnF2Wcy-306" value="" style="endArrow=none;html=1;rounded=0;exitX=1;exitY=0.75;exitDx=0;exitDy=0;" edge="1" source="BXh9d_WbOHaoUhnF2Wcy-315" parent="1">
          <mxGeometry width="50" height="50" relative="1" as="geometry">
            <mxPoint x="20" y="630" as="sourcePoint" />
            <mxPoint x="-10" y="547" as="targetPoint" />
          </mxGeometry>
        </mxCell>
        <mxCell id="BXh9d_WbOHaoUhnF2Wcy-307" value="" style="endArrow=none;html=1;rounded=0;" edge="1" parent="1">
          <mxGeometry width="50" height="50" relative="1" as="geometry">
            <mxPoint x="-10" y="660" as="sourcePoint" />
            <mxPoint x="-10" y="546.5" as="targetPoint" />
          </mxGeometry>
        </mxCell>
        <mxCell id="BXh9d_WbOHaoUhnF2Wcy-308" value="" style="endArrow=none;html=1;rounded=0;" edge="1" parent="1">
          <mxGeometry width="50" height="50" relative="1" as="geometry">
            <mxPoint x="-10" y="660" as="sourcePoint" />
            <mxPoint x="40" y="660" as="targetPoint" />
          </mxGeometry>
        </mxCell>
        <mxCell id="BXh9d_WbOHaoUhnF2Wcy-309" value="" style="endArrow=none;html=1;rounded=0;entryX=0;entryY=0.5;entryDx=0;entryDy=0;" edge="1" target="BXh9d_WbOHaoUhnF2Wcy-130" parent="1">
          <mxGeometry width="50" height="50" relative="1" as="geometry">
            <mxPoint x="99.5" y="792" as="sourcePoint" />
            <mxPoint x="120" y="720" as="targetPoint" />
          </mxGeometry>
        </mxCell>
        <mxCell id="BXh9d_WbOHaoUhnF2Wcy-310" value="" style="endArrow=none;html=1;rounded=0;exitX=1;exitY=0.5;exitDx=0;exitDy=0;" edge="1" source="BXh9d_WbOHaoUhnF2Wcy-312" parent="1">
          <mxGeometry width="50" height="50" relative="1" as="geometry">
            <mxPoint x="94.82" y="665.54" as="sourcePoint" />
            <mxPoint x="100" y="660" as="targetPoint" />
          </mxGeometry>
        </mxCell>
        <mxCell id="BXh9d_WbOHaoUhnF2Wcy-311" value="" style="endArrow=none;html=1;rounded=0;" edge="1" parent="1">
          <mxGeometry width="50" height="50" relative="1" as="geometry">
            <mxPoint x="100" y="792" as="sourcePoint" />
            <mxPoint x="100" y="659.5" as="targetPoint" />
          </mxGeometry>
        </mxCell>
        <mxCell id="BXh9d_WbOHaoUhnF2Wcy-312" value="Pertinenza" style="shape=rhombus;perimeter=rhombusPerimeter;whiteSpace=wrap;html=1;align=center;" vertex="1" parent="1">
          <mxGeometry x="5.879999999999981" y="637.78" width="80" height="45" as="geometry" />
        </mxCell>
        <mxCell id="BXh9d_WbOHaoUhnF2Wcy-313" value="" style="endArrow=none;html=1;rounded=0;entryX=0;entryY=0.5;entryDx=0;entryDy=0;exitX=0.968;exitY=0.39;exitDx=0;exitDy=0;exitPerimeter=0;" edge="1" source="BXh9d_WbOHaoUhnF2Wcy-315" target="BXh9d_WbOHaoUhnF2Wcy-314" parent="1">
          <mxGeometry width="50" height="50" relative="1" as="geometry">
            <mxPoint x="-80" y="536" as="sourcePoint" />
            <mxPoint x="167" y="536" as="targetPoint" />
          </mxGeometry>
        </mxCell>
        <mxCell id="BXh9d_WbOHaoUhnF2Wcy-314" value="Offerta" style="shape=rhombus;perimeter=rhombusPerimeter;whiteSpace=wrap;html=1;align=center;" vertex="1" parent="1">
          <mxGeometry x="5.879999999999989" y="513.75" width="70" height="45" as="geometry" />
        </mxCell>
        <mxCell id="BXh9d_WbOHaoUhnF2Wcy-316" value="&lt;font style=&quot;font-size: 9px;&quot;&gt;Codice&lt;/font&gt;" style="text;html=1;align=center;verticalAlign=middle;whiteSpace=wrap;rounded=0;" vertex="1" parent="1">
          <mxGeometry x="-721.33" y="973.95" width="42.67" height="20.03" as="geometry" />
        </mxCell>
        <mxCell id="BXh9d_WbOHaoUhnF2Wcy-317" value="&lt;font style=&quot;font-size: 8px;&quot;&gt;Ora&lt;/font&gt;" style="text;html=1;align=center;verticalAlign=middle;whiteSpace=wrap;rounded=1;strokeColor=none;glass=0;" vertex="1" parent="1">
          <mxGeometry x="-668.28" y="1059.43" width="30" height="11.5" as="geometry" />
        </mxCell>
        <mxCell id="BXh9d_WbOHaoUhnF2Wcy-318" style="edgeStyle=orthogonalEdgeStyle;rounded=0;orthogonalLoop=1;jettySize=auto;html=1;exitX=1;exitY=1;exitDx=0;exitDy=0;endArrow=oval;endFill=0;" edge="1" parent="1">
          <mxGeometry relative="1" as="geometry">
            <mxPoint x="-687.4536200771092" y="1066.503264551872" as="sourcePoint" />
            <mxPoint x="-666.28" y="1066.3600000000001" as="targetPoint" />
          </mxGeometry>
        </mxCell>
        <mxCell id="BXh9d_WbOHaoUhnF2Wcy-319" value="&lt;font style=&quot;font-size: 8px;&quot;&gt;Data&lt;/font&gt;" style="text;html=1;align=center;verticalAlign=middle;whiteSpace=wrap;rounded=1;strokeColor=none;glass=0;" vertex="1" parent="1">
          <mxGeometry x="-668.28" y="1050.56" width="30" height="6.5" as="geometry" />
        </mxCell>
        <mxCell id="BXh9d_WbOHaoUhnF2Wcy-320" style="edgeStyle=orthogonalEdgeStyle;rounded=0;orthogonalLoop=1;jettySize=auto;html=1;exitX=1;exitY=0;exitDx=0;exitDy=0;entryX=0.086;entryY=0.404;entryDx=0;entryDy=0;entryPerimeter=0;endArrow=oval;endFill=0;" edge="1" source="BXh9d_WbOHaoUhnF2Wcy-321" target="BXh9d_WbOHaoUhnF2Wcy-319" parent="1">
          <mxGeometry relative="1" as="geometry" />
        </mxCell>
        <mxCell id="BXh9d_WbOHaoUhnF2Wcy-321" value="&lt;p style=&quot;line-height: 110%;&quot;&gt;&lt;font style=&quot;font-size: 7px;&quot;&gt;Data&lt;/font&gt;&lt;/p&gt;" style="ellipse;whiteSpace=wrap;html=1;" vertex="1" parent="1">
          <mxGeometry x="-718.28" y="1050.93" width="36.12" height="20" as="geometry" />
        </mxCell>
        <mxCell id="BXh9d_WbOHaoUhnF2Wcy-322" value="InterazioneAvatar" style="whiteSpace=wrap;html=1;align=center;" vertex="1" parent="1">
          <mxGeometry x="-783.51" y="1007.63" width="103" height="26.28" as="geometry" />
        </mxCell>
        <mxCell id="BXh9d_WbOHaoUhnF2Wcy-323" value="&lt;font style=&quot;font-size: 9px;&quot;&gt;Codice&lt;/font&gt;" style="text;html=1;align=center;verticalAlign=middle;whiteSpace=wrap;rounded=0;" vertex="1" parent="1">
          <mxGeometry x="-541.5" y="971.6700000000001" width="42.67" height="17.9" as="geometry" />
        </mxCell>
        <mxCell id="BXh9d_WbOHaoUhnF2Wcy-324" style="edgeStyle=orthogonalEdgeStyle;rounded=0;orthogonalLoop=1;jettySize=auto;html=1;exitX=0.75;exitY=0;exitDx=0;exitDy=0;endArrow=oval;endFill=1;" edge="1" parent="1">
          <mxGeometry relative="1" as="geometry">
            <mxPoint x="-517.3800000000001" y="1007.58" as="sourcePoint" />
            <mxPoint x="-519.3800000000001" y="991.58" as="targetPoint" />
          </mxGeometry>
        </mxCell>
        <mxCell id="BXh9d_WbOHaoUhnF2Wcy-325" value="&lt;font style=&quot;font-size: 8px;&quot;&gt;Tema&lt;/font&gt;&lt;div style=&quot;line-height: 50%;&quot;&gt;&lt;font style=&quot;font-size: 8px;&quot;&gt;Storico&lt;/font&gt;&lt;/div&gt;" style="text;html=1;align=center;verticalAlign=middle;whiteSpace=wrap;rounded=1;strokeColor=none;" vertex="1" parent="1">
          <mxGeometry x="-556.77" y="1101.35" width="40" height="20" as="geometry" />
        </mxCell>
        <mxCell id="BXh9d_WbOHaoUhnF2Wcy-326" value="" style="endArrow=none;html=1;rounded=0;" edge="1" parent="1">
          <mxGeometry width="50" height="50" relative="1" as="geometry">
            <mxPoint x="-670" y="1149.5" as="sourcePoint" />
            <mxPoint x="-670" y="1184.4" as="targetPoint" />
          </mxGeometry>
        </mxCell>
        <mxCell id="BXh9d_WbOHaoUhnF2Wcy-327" value="" style="endArrow=none;html=1;rounded=0;entryX=0.5;entryY=0;entryDx=0;entryDy=0;" edge="1" parent="1">
          <mxGeometry width="50" height="50" relative="1" as="geometry">
            <mxPoint x="-670" y="1150" as="sourcePoint" />
            <mxPoint x="-649.6000000000001" y="1150.3500000000001" as="targetPoint" />
          </mxGeometry>
        </mxCell>
        <mxCell id="BXh9d_WbOHaoUhnF2Wcy-328" value="" style="shape=singleArrow;direction=west;whiteSpace=wrap;html=1;arrowWidth=0.3808905843098993;arrowSize=0.6576580700573631;" vertex="1" parent="1">
          <mxGeometry x="-709.1" y="1150" width="39.1" height="30" as="geometry" />
        </mxCell>
        <mxCell id="BXh9d_WbOHaoUhnF2Wcy-329" style="edgeStyle=orthogonalEdgeStyle;rounded=0;orthogonalLoop=1;jettySize=auto;html=1;exitX=1;exitY=0.5;exitDx=0;exitDy=0;endArrow=oval;endFill=0;" edge="1" source="BXh9d_WbOHaoUhnF2Wcy-330" parent="1">
          <mxGeometry relative="1" as="geometry">
            <mxPoint x="-560" y="1148.3333333333333" as="targetPoint" />
          </mxGeometry>
        </mxCell>
        <mxCell id="BXh9d_WbOHaoUhnF2Wcy-330" value="Saluto" style="whiteSpace=wrap;html=1;align=center;" vertex="1" parent="1">
          <mxGeometry x="-654.9900000000001" y="1138.93" width="71.68" height="18.5" as="geometry" />
        </mxCell>
        <mxCell id="BXh9d_WbOHaoUhnF2Wcy-331" value="" style="endArrow=none;html=1;rounded=0;" edge="1" parent="1">
          <mxGeometry width="50" height="50" relative="1" as="geometry">
            <mxPoint x="-669.7000000000002" y="1183.89" as="sourcePoint" />
            <mxPoint x="-654.99" y="1183.96" as="targetPoint" />
          </mxGeometry>
        </mxCell>
        <mxCell id="BXh9d_WbOHaoUhnF2Wcy-332" value="&lt;font style=&quot;font-size: 9px;&quot;&gt;Codice&lt;/font&gt;" style="text;html=1;align=center;verticalAlign=middle;whiteSpace=wrap;rounded=0;" vertex="1" parent="1">
          <mxGeometry x="-725.0000000000001" y="1122.1100000000001" width="42.67" height="20.03" as="geometry" />
        </mxCell>
        <mxCell id="BXh9d_WbOHaoUhnF2Wcy-333" style="edgeStyle=orthogonalEdgeStyle;rounded=0;orthogonalLoop=1;jettySize=auto;html=1;exitX=0.75;exitY=0;exitDx=0;exitDy=0;endArrow=oval;endFill=1;" edge="1" parent="1">
          <mxGeometry relative="1" as="geometry">
            <mxPoint x="-710.1000000000001" y="1158.14" as="sourcePoint" />
            <mxPoint x="-712.1000000000001" y="1142.14" as="targetPoint" />
          </mxGeometry>
        </mxCell>
        <mxCell id="BXh9d_WbOHaoUhnF2Wcy-334" value="Azione" style="whiteSpace=wrap;html=1;align=center;" vertex="1" parent="1">
          <mxGeometry x="-770.0999999999999" y="1149.9999999999998" width="60" height="30" as="geometry" />
        </mxCell>
        <mxCell id="BXh9d_WbOHaoUhnF2Wcy-335" style="edgeStyle=orthogonalEdgeStyle;rounded=0;orthogonalLoop=1;jettySize=auto;html=1;exitX=1;exitY=1;exitDx=0;exitDy=0;endArrow=oval;endFill=0;" edge="1" parent="1">
          <mxGeometry relative="1" as="geometry">
            <mxPoint x="-585.7336200771092" y="1184.0532645518722" as="sourcePoint" />
            <mxPoint x="-564.56" y="1183.9100000000003" as="targetPoint" />
          </mxGeometry>
        </mxCell>
        <mxCell id="BXh9d_WbOHaoUhnF2Wcy-336" value="&lt;font style=&quot;font-size: 8px;&quot;&gt;Contenuto&lt;/font&gt;" style="text;html=1;align=center;verticalAlign=middle;whiteSpace=wrap;rounded=1;strokeColor=none;" vertex="1" parent="1">
          <mxGeometry x="-560" y="1170" width="39" height="24" as="geometry" />
        </mxCell>
        <mxCell id="BXh9d_WbOHaoUhnF2Wcy-337" value="Messaggio" style="whiteSpace=wrap;html=1;align=center;" vertex="1" parent="1">
          <mxGeometry x="-655.0400000000001" y="1174.7400000000002" width="80" height="18.5" as="geometry" />
        </mxCell>
        <mxCell id="BXh9d_WbOHaoUhnF2Wcy-338" style="edgeStyle=orthogonalEdgeStyle;rounded=0;orthogonalLoop=1;jettySize=auto;html=1;exitX=1.002;exitY=0.482;exitDx=0;exitDy=0;endArrow=oval;endFill=0;entryX=-0.112;entryY=0.718;entryDx=0;entryDy=0;entryPerimeter=0;exitPerimeter=0;" edge="1" parent="1">
          <mxGeometry relative="1" as="geometry">
            <mxPoint x="-483.39" y="1034.0336600000003" as="sourcePoint" />
            <mxPoint x="-460.15" y="1033.91" as="targetPoint" />
            <Array as="points">
              <mxPoint x="-470.14" y="1033.91" />
            </Array>
          </mxGeometry>
        </mxCell>
        <mxCell id="BXh9d_WbOHaoUhnF2Wcy-339" value="" style="endArrow=none;html=1;rounded=0;exitX=0.5;exitY=0;exitDx=0;exitDy=0;" edge="1" parent="1">
          <mxGeometry width="50" height="50" relative="1" as="geometry">
            <mxPoint x="220.7" y="523" as="sourcePoint" />
            <mxPoint x="220" y="348" as="targetPoint" />
          </mxGeometry>
        </mxCell>
        <mxCell id="BXh9d_WbOHaoUhnF2Wcy-340" value="" style="endArrow=none;html=1;rounded=0;exitX=0.5;exitY=0;exitDx=0;exitDy=0;" edge="1" parent="1">
          <mxGeometry width="50" height="50" relative="1" as="geometry">
            <mxPoint x="-498.83" y="434" as="sourcePoint" />
            <mxPoint x="-499" y="348" as="targetPoint" />
          </mxGeometry>
        </mxCell>
        <mxCell id="BXh9d_WbOHaoUhnF2Wcy-341" value="" style="endArrow=none;html=1;rounded=0;" edge="1" parent="1">
          <mxGeometry width="50" height="50" relative="1" as="geometry">
            <mxPoint x="-470.77000000000004" y="449.94000000000005" as="sourcePoint" />
            <mxPoint x="-420" y="450" as="targetPoint" />
          </mxGeometry>
        </mxCell>
        <mxCell id="BXh9d_WbOHaoUhnF2Wcy-342" value="Oggetti Informatici" style="whiteSpace=wrap;html=1;align=center;" vertex="1" parent="1">
          <mxGeometry x="-433.65000000000003" y="432.25" width="100" height="35" as="geometry" />
        </mxCell>
        <mxCell id="BXh9d_WbOHaoUhnF2Wcy-343" value="Utilizza" style="shape=rhombus;perimeter=rhombusPerimeter;whiteSpace=wrap;html=1;align=center;" vertex="1" parent="1">
          <mxGeometry x="-533.6500000000001" y="430.24999999999994" width="70" height="39.81" as="geometry" />
        </mxCell>
        <mxCell id="BXh9d_WbOHaoUhnF2Wcy-344" value="" style="endArrow=none;html=1;rounded=0;" edge="1" parent="1">
          <mxGeometry width="50" height="50" relative="1" as="geometry">
            <mxPoint x="-176" y="540" as="sourcePoint" />
            <mxPoint x="-176" y="337" as="targetPoint" />
          </mxGeometry>
        </mxCell>
        <mxCell id="BXh9d_WbOHaoUhnF2Wcy-345" value="&lt;span style=&quot;font-size: 8px;&quot;&gt;(1,1)&lt;/span&gt;" style="text;html=1;align=center;verticalAlign=middle;whiteSpace=wrap;rounded=1;strokeColor=none;glass=0;" vertex="1" parent="1">
          <mxGeometry x="-185.55" y="373.88" width="50" height="15" as="geometry" />
        </mxCell>
        <mxCell id="BXh9d_WbOHaoUhnF2Wcy-346" value="&lt;span style=&quot;font-size: 8px;&quot;&gt;(0,N)&lt;/span&gt;" style="text;html=1;align=center;verticalAlign=middle;whiteSpace=wrap;rounded=1;strokeColor=none;glass=0;" vertex="1" parent="1">
          <mxGeometry x="-175.17000000000002" y="437.75" width="50" height="15" as="geometry" />
        </mxCell>
        <mxCell id="BXh9d_WbOHaoUhnF2Wcy-347" value="" style="endArrow=none;html=1;rounded=0;" edge="1" parent="1">
          <mxGeometry width="50" height="50" relative="1" as="geometry">
            <mxPoint x="-242.5" y="347" as="sourcePoint" />
            <mxPoint x="-460" y="347" as="targetPoint" />
          </mxGeometry>
        </mxCell>
        <mxCell id="BXh9d_WbOHaoUhnF2Wcy-348" value="" style="endArrow=none;html=1;rounded=0;" edge="1" source="BXh9d_WbOHaoUhnF2Wcy-185" parent="1">
          <mxGeometry width="50" height="50" relative="1" as="geometry">
            <mxPoint x="-40" y="330" as="sourcePoint" />
            <mxPoint x="-454.55" y="330.41" as="targetPoint" />
          </mxGeometry>
        </mxCell>
        <mxCell id="BXh9d_WbOHaoUhnF2Wcy-349" value="Visita" style="whiteSpace=wrap;html=1;align=center;" vertex="1" parent="1">
          <mxGeometry x="-535.14" y="323.66" width="90.38" height="26.28" as="geometry" />
        </mxCell>
        <mxCell id="BXh9d_WbOHaoUhnF2Wcy-350" value="P-E" style="shape=rhombus;perimeter=rhombusPerimeter;whiteSpace=wrap;html=1;align=center;" vertex="1" parent="1">
          <mxGeometry x="184.89000000000001" y="310.13000000000005" width="70" height="39.81" as="geometry" />
        </mxCell>
        <mxCell id="BXh9d_WbOHaoUhnF2Wcy-351" value="Esplorazione" style="shape=rhombus;perimeter=rhombusPerimeter;whiteSpace=wrap;html=1;align=center;" vertex="1" parent="1">
          <mxGeometry x="-227.19" y="388.88" width="103.19" height="57.74" as="geometry" />
        </mxCell>
        <mxCell id="BXh9d_WbOHaoUhnF2Wcy-352" value="" style="endArrow=none;html=1;rounded=0;" edge="1" parent="1">
          <mxGeometry width="50" height="50" relative="1" as="geometry">
            <mxPoint x="-176.5" y="540" as="sourcePoint" />
            <mxPoint x="-148" y="540" as="targetPoint" />
          </mxGeometry>
        </mxCell>
        <mxCell id="BXh9d_WbOHaoUhnF2Wcy-353" value="Conversazione" style="whiteSpace=wrap;html=1;align=center;" vertex="1" parent="1">
          <mxGeometry x="-561" y="1002.95" width="83" height="35.63" as="geometry" />
        </mxCell>
        <mxCell id="BXh9d_WbOHaoUhnF2Wcy-354" style="edgeStyle=orthogonalEdgeStyle;rounded=0;orthogonalLoop=1;jettySize=auto;html=1;exitX=1;exitY=0.5;exitDx=0;exitDy=0;entryX=0.25;entryY=1;entryDx=0;entryDy=0;endArrow=oval;endFill=0;" edge="1" parent="1">
          <mxGeometry relative="1" as="geometry">
            <mxPoint x="-478.2800000000002" y="1080.835" as="sourcePoint" />
            <mxPoint x="-442.2800000000002" y="1073.21" as="targetPoint" />
          </mxGeometry>
        </mxCell>
        <mxCell id="BXh9d_WbOHaoUhnF2Wcy-355" value="" style="shape=singleArrow;direction=north;whiteSpace=wrap;html=1;arrowWidth=0.3808905843098993;arrowSize=0.6576580700573631;" vertex="1" parent="1">
          <mxGeometry x="-535.1600000000001" y="1038.58" width="30" height="18" as="geometry" />
        </mxCell>
        <mxCell id="BXh9d_WbOHaoUhnF2Wcy-356" value="Discussione Virtuale" style="whiteSpace=wrap;html=1;align=center;" vertex="1" parent="1">
          <mxGeometry x="-621.41" y="1069.84" width="81.41" height="30.16" as="geometry" />
        </mxCell>
        <mxCell id="BXh9d_WbOHaoUhnF2Wcy-357" value="Nuova&lt;div&gt;Teoria&lt;/div&gt;" style="whiteSpace=wrap;html=1;align=center;" vertex="1" parent="1">
          <mxGeometry x="-496.4100000000001" y="1069.84" width="77.5" height="30" as="geometry" />
        </mxCell>
        <mxCell id="BXh9d_WbOHaoUhnF2Wcy-358" value="" style="endArrow=none;html=1;rounded=0;exitX=0.475;exitY=0.003;exitDx=0;exitDy=0;exitPerimeter=0;" edge="1" source="BXh9d_WbOHaoUhnF2Wcy-356" parent="1">
          <mxGeometry width="50" height="50" relative="1" as="geometry">
            <mxPoint x="-639.5400000000001" y="1061.71" as="sourcePoint" />
            <mxPoint x="-582.5400000000001" y="1056.71" as="targetPoint" />
          </mxGeometry>
        </mxCell>
        <mxCell id="BXh9d_WbOHaoUhnF2Wcy-359" value="" style="endArrow=none;html=1;rounded=0;" edge="1" parent="1">
          <mxGeometry width="50" height="50" relative="1" as="geometry">
            <mxPoint x="-583.0400000000001" y="1056.71" as="sourcePoint" />
            <mxPoint x="-459.0400000000002" y="1056.71" as="targetPoint" />
          </mxGeometry>
        </mxCell>
        <mxCell id="BXh9d_WbOHaoUhnF2Wcy-360" value="" style="endArrow=none;html=1;rounded=0;entryX=0.476;entryY=-0.004;entryDx=0;entryDy=0;entryPerimeter=0;" edge="1" target="BXh9d_WbOHaoUhnF2Wcy-357" parent="1">
          <mxGeometry width="50" height="50" relative="1" as="geometry">
            <mxPoint x="-459.5400000000002" y="1056.71" as="sourcePoint" />
            <mxPoint x="-379.5400000000001" y="1011.71" as="targetPoint" />
          </mxGeometry>
        </mxCell>
        <mxCell id="BXh9d_WbOHaoUhnF2Wcy-361" style="edgeStyle=orthogonalEdgeStyle;rounded=0;orthogonalLoop=1;jettySize=auto;html=1;exitX=0.75;exitY=1;exitDx=0;exitDy=0;entryX=0.578;entryY=0.124;entryDx=0;entryDy=0;entryPerimeter=0;endArrow=oval;endFill=0;" edge="1" parent="1">
          <mxGeometry relative="1" as="geometry">
            <mxPoint x="-552.49" y="1100" as="sourcePoint" />
            <mxPoint x="-552.3700000000001" y="1110.4688482490274" as="targetPoint" />
          </mxGeometry>
        </mxCell>
        <mxCell id="BXh9d_WbOHaoUhnF2Wcy-362" style="edgeStyle=orthogonalEdgeStyle;rounded=0;orthogonalLoop=1;jettySize=auto;html=1;endArrow=oval;endFill=0;" edge="1" parent="1">
          <mxGeometry relative="1" as="geometry">
            <mxPoint x="189.82" y="1005.1700000000001" as="sourcePoint" />
            <mxPoint x="207.7" y="1005.3000000000002" as="targetPoint" />
            <Array as="points">
              <mxPoint x="197.7" y="1005.3000000000002" />
            </Array>
          </mxGeometry>
        </mxCell>
        <mxCell id="BXh9d_WbOHaoUhnF2Wcy-363" value="&lt;font style=&quot;font-size: 9px;&quot;&gt;Tema&lt;/font&gt;" style="text;html=1;align=center;verticalAlign=middle;whiteSpace=wrap;rounded=0;" vertex="1" parent="1">
          <mxGeometry x="204" y="997.9600000000003" width="40" height="13" as="geometry" />
        </mxCell>
        <mxCell id="BXh9d_WbOHaoUhnF2Wcy-364" value="&lt;font style=&quot;font-size: 8px;&quot;&gt;Ora&lt;/font&gt;" style="text;html=1;align=center;verticalAlign=middle;whiteSpace=wrap;rounded=1;strokeColor=none;glass=0;" vertex="1" parent="1">
          <mxGeometry x="-320.56" y="726.65" width="30" height="11.5" as="geometry" />
        </mxCell>
        <mxCell id="BXh9d_WbOHaoUhnF2Wcy-365" style="edgeStyle=orthogonalEdgeStyle;rounded=0;orthogonalLoop=1;jettySize=auto;html=1;exitX=1;exitY=1;exitDx=0;exitDy=0;endArrow=oval;endFill=0;" edge="1" parent="1">
          <mxGeometry relative="1" as="geometry">
            <mxPoint x="-339.73362007710926" y="733.7232645518719" as="sourcePoint" />
            <mxPoint x="-318.56" y="733.5799999999999" as="targetPoint" />
          </mxGeometry>
        </mxCell>
        <mxCell id="BXh9d_WbOHaoUhnF2Wcy-366" value="&lt;font style=&quot;font-size: 8px;&quot;&gt;Data&lt;/font&gt;" style="text;html=1;align=center;verticalAlign=middle;whiteSpace=wrap;rounded=1;strokeColor=none;glass=0;" vertex="1" parent="1">
          <mxGeometry x="-320.56" y="717.78" width="30" height="6.5" as="geometry" />
        </mxCell>
        <mxCell id="BXh9d_WbOHaoUhnF2Wcy-367" style="edgeStyle=orthogonalEdgeStyle;rounded=0;orthogonalLoop=1;jettySize=auto;html=1;exitX=1;exitY=0;exitDx=0;exitDy=0;entryX=0.086;entryY=0.404;entryDx=0;entryDy=0;entryPerimeter=0;endArrow=oval;endFill=0;" edge="1" source="BXh9d_WbOHaoUhnF2Wcy-368" target="BXh9d_WbOHaoUhnF2Wcy-366" parent="1">
          <mxGeometry relative="1" as="geometry" />
        </mxCell>
        <mxCell id="BXh9d_WbOHaoUhnF2Wcy-368" value="&lt;p style=&quot;line-height: 110%;&quot;&gt;&lt;font style=&quot;font-size: 7px;&quot;&gt;DataFine&lt;/font&gt;&lt;/p&gt;" style="ellipse;whiteSpace=wrap;html=1;" vertex="1" parent="1">
          <mxGeometry x="-370.56" y="718.15" width="36.12" height="20" as="geometry" />
        </mxCell>
        <mxCell id="BXh9d_WbOHaoUhnF2Wcy-369" value="" style="endArrow=none;html=1;rounded=0;" edge="1" parent="1">
          <mxGeometry width="50" height="50" relative="1" as="geometry">
            <mxPoint x="-353" y="690" as="sourcePoint" />
            <mxPoint x="-352.74" y="718.1500000000001" as="targetPoint" />
          </mxGeometry>
        </mxCell>
        <mxCell id="BXh9d_WbOHaoUhnF2Wcy-370" value="Vestizione&lt;div&gt;passata&lt;/div&gt;" style="whiteSpace=wrap;html=1;align=center;" vertex="1" parent="1">
          <mxGeometry x="-394.64" y="671.1400000000001" width="80.33" height="29.25" as="geometry" />
        </mxCell>
        <mxCell id="BXh9d_WbOHaoUhnF2Wcy-371" style="edgeStyle=orthogonalEdgeStyle;rounded=0;orthogonalLoop=1;jettySize=auto;html=1;exitX=1;exitY=1;exitDx=0;exitDy=0;endArrow=oval;endFill=0;" edge="1" parent="1">
          <mxGeometry relative="1" as="geometry">
            <mxPoint x="-342.6536200771093" y="949.9232645518719" as="sourcePoint" />
            <mxPoint x="-321.48" y="949.78" as="targetPoint" />
          </mxGeometry>
        </mxCell>
        <mxCell id="BXh9d_WbOHaoUhnF2Wcy-372" value="&lt;p style=&quot;line-height: 110%;&quot;&gt;&lt;font style=&quot;font-size: 7px;&quot;&gt;DataFine&lt;/font&gt;&lt;/p&gt;" style="ellipse;whiteSpace=wrap;html=1;" vertex="1" parent="1">
          <mxGeometry x="-373.48" y="934.3499999999999" width="36.12" height="20" as="geometry" />
        </mxCell>
        <mxCell id="BXh9d_WbOHaoUhnF2Wcy-373" value="" style="endArrow=none;html=1;rounded=0;" edge="1" parent="1">
          <mxGeometry width="50" height="50" relative="1" as="geometry">
            <mxPoint x="-355.27" y="906.2" as="sourcePoint" />
            <mxPoint x="-355.01" y="934.3500000000001" as="targetPoint" />
          </mxGeometry>
        </mxCell>
        <mxCell id="BXh9d_WbOHaoUhnF2Wcy-374" value="&lt;div&gt;Utilizzo&lt;/div&gt;&lt;div&gt;passato&lt;/div&gt;" style="whiteSpace=wrap;html=1;align=center;" vertex="1" parent="1">
          <mxGeometry x="-391.32" y="887.9200000000001" width="80.33" height="29.25" as="geometry" />
        </mxCell>
        <mxCell id="BXh9d_WbOHaoUhnF2Wcy-375" style="edgeStyle=orthogonalEdgeStyle;rounded=0;orthogonalLoop=1;jettySize=auto;html=1;exitX=1;exitY=0;exitDx=0;exitDy=0;entryX=0.086;entryY=0.404;entryDx=0;entryDy=0;entryPerimeter=0;endArrow=oval;endFill=0;" edge="1" parent="1">
          <mxGeometry relative="1" as="geometry">
            <mxPoint x="-343.85" y="936.84" as="sourcePoint" />
            <mxPoint x="-322.85" y="935.84" as="targetPoint" />
          </mxGeometry>
        </mxCell>
        <mxCell id="BXh9d_WbOHaoUhnF2Wcy-376" value="&lt;font style=&quot;font-size: 8px;&quot;&gt;Data&lt;/font&gt;" style="text;html=1;align=center;verticalAlign=middle;whiteSpace=wrap;rounded=1;strokeColor=none;glass=0;" vertex="1" parent="1">
          <mxGeometry x="-324" y="932" width="30" height="6.5" as="geometry" />
        </mxCell>
        <mxCell id="BXh9d_WbOHaoUhnF2Wcy-377" value="&lt;font style=&quot;font-size: 8px;&quot;&gt;Ora&lt;/font&gt;" style="text;html=1;align=center;verticalAlign=middle;whiteSpace=wrap;rounded=1;strokeColor=none;glass=0;" vertex="1" parent="1">
          <mxGeometry x="-324" y="942" width="30" height="11.5" as="geometry" />
        </mxCell>
        <mxCell id="BXh9d_WbOHaoUhnF2Wcy-378" value="&lt;font style=&quot;font-size: 9px;&quot;&gt;Descrizione&lt;/font&gt;" style="text;html=1;align=center;verticalAlign=middle;whiteSpace=wrap;rounded=0;" vertex="1" parent="1">
          <mxGeometry x="-130.69000000000005" y="961.08" width="35" height="15" as="geometry" />
        </mxCell>
        <mxCell id="BXh9d_WbOHaoUhnF2Wcy-379" style="edgeStyle=orthogonalEdgeStyle;rounded=0;orthogonalLoop=1;jettySize=auto;html=1;exitX=0.25;exitY=0;exitDx=0;exitDy=0;entryX=0.842;entryY=1.009;entryDx=0;entryDy=0;entryPerimeter=0;endArrow=oval;endFill=0;" edge="1" parent="1">
          <mxGeometry relative="1" as="geometry">
            <mxPoint x="-118.61999999999982" y="992.13" as="sourcePoint" />
            <mxPoint x="-115.61999999999982" y="979.13" as="targetPoint" />
          </mxGeometry>
        </mxCell>
        <mxCell id="BXh9d_WbOHaoUhnF2Wcy-380" value="&lt;font style=&quot;font-size: 8px;&quot;&gt;Contenuto&lt;/font&gt;" style="text;html=1;align=center;verticalAlign=middle;whiteSpace=wrap;rounded=1;strokeColor=none;" vertex="1" parent="1">
          <mxGeometry x="-554.82" y="1133.43" width="39" height="24" as="geometry" />
        </mxCell>
        <mxCell id="BXh9d_WbOHaoUhnF2Wcy-385" style="edgeStyle=orthogonalEdgeStyle;rounded=0;orthogonalLoop=1;jettySize=auto;html=1;exitX=0.5;exitY=1;exitDx=0;exitDy=0;" edge="1" parent="1">
          <mxGeometry relative="1" as="geometry">
            <mxPoint x="129.04999999999973" y="384.14000000000004" as="sourcePoint" />
            <mxPoint x="129.04999999999973" y="384.14000000000004" as="targetPoint" />
          </mxGeometry>
        </mxCell>
        <mxCell id="BXh9d_WbOHaoUhnF2Wcy-404" style="edgeStyle=orthogonalEdgeStyle;rounded=0;orthogonalLoop=1;jettySize=auto;html=1;exitX=0.25;exitY=1;exitDx=0;exitDy=0;endArrow=oval;endFill=0;" edge="1" parent="1">
          <mxGeometry relative="1" as="geometry">
            <mxPoint x="-87.88000000000002" y="554.6499999999999" as="sourcePoint" />
            <mxPoint x="-90.12000000000003" y="564.95" as="targetPoint" />
          </mxGeometry>
        </mxCell>
        <mxCell id="BXh9d_WbOHaoUhnF2Wcy-405" value="&lt;p style=&quot;line-height: 70%;&quot;&gt;&lt;font style=&quot;font-size: 9px;&quot;&gt;Numero Oggetti&lt;/font&gt;&lt;/p&gt;" style="text;html=1;align=center;verticalAlign=middle;whiteSpace=wrap;rounded=0;" vertex="1" parent="1">
          <mxGeometry x="-108.00000000000006" y="562.36" width="58.45" height="27.11" as="geometry" />
        </mxCell>
        <mxCell id="BXh9d_WbOHaoUhnF2Wcy-406" style="edgeStyle=orthogonalEdgeStyle;rounded=0;orthogonalLoop=1;jettySize=auto;html=1;exitX=1;exitY=0.5;exitDx=0;exitDy=0;endArrow=oval;endFill=0;" edge="1" parent="1">
          <mxGeometry relative="1" as="geometry">
            <mxPoint x="-79.55000000000017" y="552.6300000000001" as="sourcePoint" />
            <mxPoint x="-56.55000000000017" y="552.6300000000001" as="targetPoint" />
            <Array as="points">
              <mxPoint x="-63.55000000000017" y="552.6300000000001" />
            </Array>
          </mxGeometry>
        </mxCell>
        <mxCell id="BXh9d_WbOHaoUhnF2Wcy-407" value="&lt;p style=&quot;line-height: 0%;&quot;&gt;&lt;font style=&quot;font-size: 9px;&quot;&gt;Numero&lt;/font&gt;&lt;/p&gt;&lt;p style=&quot;line-height: 0%;&quot;&gt;&lt;font style=&quot;font-size: 9px;&quot;&gt;Esperienze&lt;/font&gt;&lt;/p&gt;" style="text;html=1;align=center;verticalAlign=middle;whiteSpace=wrap;rounded=0;" vertex="1" parent="1">
          <mxGeometry x="-62.37000000000003" y="552.63" width="58.45" height="11" as="geometry" />
        </mxCell>
        <mxCell id="BXh9d_WbOHaoUhnF2Wcy-409" value="&lt;p style=&quot;line-height: 0%;&quot;&gt;&lt;font style=&quot;font-size: 9px;&quot;&gt;Numero&lt;/font&gt;&lt;/p&gt;&lt;p style=&quot;line-height: 0%;&quot;&gt;&lt;font size=&quot;1&quot;&gt;Abbigliamenti&lt;/font&gt;&lt;/p&gt;" style="text;html=1;align=center;verticalAlign=middle;whiteSpace=wrap;rounded=0;" vertex="1" parent="1">
          <mxGeometry x="-223.0000000000001" y="554.64" width="58.45" as="geometry" />
        </mxCell>
        <mxCell id="BXh9d_WbOHaoUhnF2Wcy-410" style="edgeStyle=orthogonalEdgeStyle;rounded=0;orthogonalLoop=1;jettySize=auto;html=1;entryX=0.542;entryY=0;entryDx=0;entryDy=0;entryPerimeter=0;" edge="1" parent="1" source="BXh9d_WbOHaoUhnF2Wcy-409" target="BXh9d_WbOHaoUhnF2Wcy-409">
          <mxGeometry relative="1" as="geometry" />
        </mxCell>
        <mxCell id="BXh9d_WbOHaoUhnF2Wcy-412" style="edgeStyle=orthogonalEdgeStyle;rounded=0;orthogonalLoop=1;jettySize=auto;html=1;exitX=1;exitY=0.5;exitDx=0;exitDy=0;endArrow=oval;endFill=0;" edge="1" parent="1">
          <mxGeometry relative="1" as="geometry">
            <mxPoint x="-146.69000000000017" y="550.6400000000001" as="sourcePoint" />
            <mxPoint x="-169.69000000000017" y="550.6400000000001" as="targetPoint" />
            <Array as="points">
              <mxPoint x="-153.69000000000017" y="550.6400000000001" />
            </Array>
          </mxGeometry>
        </mxCell>
        <mxCell id="BXh9d_WbOHaoUhnF2Wcy-315" value="Civiltà" style="whiteSpace=wrap;html=1;align=center;" vertex="1" parent="1">
          <mxGeometry x="-148.19" y="524.6399999999999" width="70" height="30" as="geometry" />
        </mxCell>
      </root>
    </mxGraphModel>
  </diagram>
</mxfile>
